<?xml version="1.0" standalone="no"?>
<!DOCTYPE svg PUBLIC "-//W3C//DTD SVG 1.1//EN" "http://www.w3.org/Graphics/SVG/1.1/DTD/svg11.dtd" >
<svg xmlns="http://www.w3.org/2000/svg" xmlns:xlink="http://www.w3.org/1999/xlink" version="1.1">
<metadata></metadata>
<defs>
<font id="opiumnewcbold_italic" horiz-adv-x="1202" >
<font-face units-per-em="2048" ascent="1507" descent="-541" />
<missing-glyph horiz-adv-x="598" />
<glyph horiz-adv-x="0" />
<glyph horiz-adv-x="682" />
<glyph unicode=" "  horiz-adv-x="598" />
<glyph unicode="&#x09;" horiz-adv-x="598" />
<glyph unicode="&#xa0;" horiz-adv-x="598" />
<glyph unicode="!" horiz-adv-x="602" d="M12 147q20 80 78 125q65 53 135 56q73 0 117 -56q44 -53 29 -125q-15 -69 -76 -124q-61 -52 -137 -52q-72 0 -115 49q-40 52 -31 127zM207 440l18 738q0 61 8 102q15 82 78 139q64 55 148 58q78 0 114 -56q38 -49 25 -127q-7 -34 -37 -114l-276 -740h-78z" />
<glyph unicode="&#x22;" horiz-adv-x="1001" d="M193 823v416q0 55 8 125q27 143 170 143q114 0 114 -100q0 -11 -4 -43q-11 -46 -39 -125l-163 -416h-86zM590 823v416q0 37 10 125q24 143 168 143q115 0 115 -102q0 -15 -4 -43q-6 -33 -39 -123l-164 -416h-86z" />
<glyph unicode="#" d="M6 399q19 78 25 115l8 68l70 -7l90 -6l67 -4l109 309l-66 -4l-82 -6l-63 -8q3 14 11.5 55.5t14.5 61.5l11 67l65 -6l88 -6l68 -2l33 80q18 45 43 131l39 143l24 105l92 -8l101 8l-41 -105l-54 -143l-45 -131l-24 -80h225l29 80l45 131l43 143l29 105l92 -8l96 8l-43 -105 l-57 -143l-48 -131l-26 -80l69 2l99 6l59 6q-21 -68 -31 -122l-6 -62l-63 6l-103 8l-73 4l-107 -309l68 4l98 6l57 7q-15 -63 -24 -119l-10 -64l-60 9l-106 4l-78 2l-23 -68l-47 -131l-39 -141l-30 -111l-95 8l-94 -8l47 111l52 141l47 131l24 68h-227l-23 -68l-49 -131 q-18 -68 -43 -141l-33 -111l-94 8l-100 -8l53 111l55 141q28 60 50 131l20 68l-63 -2l-80 -4zM432 565h225l109 309h-229z" />
<glyph unicode="$" d="M0 104q60 118 111 265l45 10l4 -66q12 -70 71 -133q60 -63 152 -84l39 -6l94 490l-61 20q-217 73 -267 197q-26 56 -26 127q0 47 8 88q25 121 92 211q126 181 385 225l45 6l8 47q7 54 7 121l84 -6l77 6l-24 -80l-23 -84l60 -6q151 -15 239 -66l51 -40q-62 -108 -73 -127 l-56 -117h-32l-6 43q-24 133 -142 174l-67 20l-86 -436l112 -39q171 -64 240 -190q31 -60 31 -142q0 -22 -9 -92q-38 -183 -186 -307q-154 -132 -328 -153l-45 -5l-12 -120l-12 -99l-78 4l-82 -4l31 105l26 110l-53 2q-164 15 -344 131zM446 1133q-12 -61 13 -101 q21 -43 88 -84l41 -22l82 413l-60 -22q-138 -58 -164 -184zM545 92l28 4q75 14 150 76q61 55 82 139q12 75 -23 133q-37 51 -98 84l-51 19z" />
<glyph unicode="%" horiz-adv-x="1921" d="M199 981q0 45 8 86q29 159 151 260q115 91 283 94q171 0 246 -94q59 -65 59 -176q0 -37 -6 -80q-36 -162 -152 -258q-114 -102 -272 -102q-164 0 -256 92q-61 67 -61 178zM418 893q-6 -105 96 -102q109 -3 152 127q11 38 45 184q18 103 16 139q0 100 -96 100 q-103 0 -152 -131q-30 -80 -45 -174q-19 -76 -16 -143zM434 -37l123 203l236 385l198 336l242 405l96 164l74 -4l65 4l-118 -190l-236 -385l-207 -338q-81 -130 -227 -383l-111 -197l-57 6zM948 238q0 33 10 88q34 164 150 260q119 91 283 94q164 0 247 -92q60 -72 60 -178 q0 -20 -8 -82q-31 -158 -152 -258q-119 -101 -270 -101q-187 0 -269 113q-51 60 -51 156zM1171 182q0 -136 97 -133q104 -3 147 129q39 141 47 182q15 77 15 109q0 128 -97 131q-103 0 -149 -131q-34 -99 -49 -180q-11 -75 -11 -107z" />
<glyph unicode="&#x26;" horiz-adv-x="1560" d="M12 254q0 36 6 80q53 260 451 444l-35 74q-51 114 -51 207q0 38 8 69q9 71 49 134q66 103 189 163q107 52 235 52q137 0 217 -62q80 -60 80 -162q0 -15 -4 -47q-15 -60 -49 -110q-71 -114 -221 -209l-68 -43l78 -127l90 -137l86 -127l57 55q21 21 58.5 64t44.5 51 q28 35 102 141l60 106l55 -69l49 -66l-35 -47q-11 -13 -44 -54t-52 -61q-50 -55 -125 -127l-104 -96l55 -82q86 -120 127 -166l100 -106l-241 4l-238 -4l-76 141l-73 -43q-85 -54 -166 -82q-107 -41 -236 -41q-187 0 -293 84q-86 71 -86 199zM326 389q0 -32 8 -59 q44 -176 237 -176q69 0 136 28q16 6 104 51l-90 138l-103 164l-94 145l-73 -57q-103 -86 -121 -189q-4 -32 -4 -45zM690 1161q0 -36 10 -65q7 -39 33 -101l31 -57l86 66q99 84 127 192q12 67 -23 111q-28 49 -96 49q-132 -3 -162 -135q-6 -30 -6 -60z" />
<glyph unicode="'" horiz-adv-x="602" d="M193 823v416q-3 63 8 125q27 143 168 143q136 0 112 -143q-5 -30 -39 -125l-166 -416h-83z" />
<glyph unicode="(" d="M55 377q0 108 25 239q103 525 553 848l65 43l54 -61l-43 -43q-156 -156 -250 -336q-82 -168 -133 -438q-37 -171 -37 -342q0 -187 49 -310q27 -65 53 -108l41 -68l-78 -61l-57 45q-242 227 -242 592z" />
<glyph unicode=")" d="M-150 -199l68 68q55 58 94 108q191 252 269 652q38 193 38 350q0 34 -4 88q-15 181 -118 336l-27 43l82 61l47 -43q152 -156 213 -346q35 -106 35 -250q0 -120 -27 -252q-102 -530 -540 -831l-70 -45z" />
<glyph unicode="*" d="M182 950l88 29l136 57l102 45l-86 45l-113 60l-76 28q59 52 72 72q7 7 57 78l48 -53q18 -18 88 -80l77 -64l11 113q9 80 6 141v68q59 -12 90 -12q32 0 102 12l-32 -68q-9 -22 -45 -141l-33 -113l96 64q80 52 119 80l72 53q4 -19 24 -78q17 -35 45 -72l-86 -28l-137 -60 l-102 -45l86 -45l114 -57l74 -29q-55 -52 -72 -71q-14 -16 -55 -78l-51 53q-15 14 -43 41t-43 41l-76 61l-10 -112q-11 -76 -11 -142l5 -65q-68 10 -95 10q-20 0 -98 -10l29 65q21 45 49 142l33 112l-99 -61q-17 -12 -57 -39.5t-63 -42.5l-68 -53q-5 20 -15.5 46.5 t-11.5 31.5q-11 23 -45 71z" />
<glyph unicode="+" horiz-adv-x="1923" d="M381 424l37 186h467l90 471h188l-90 -471h469l-37 -186h-469l-92 -469h-188l92 469h-467z" />
<glyph unicode="," horiz-adv-x="602" d="M-14 -377l213 496q46 102 80 147q48 66 147 66q55 0 90 -35q31 -46 23 -92q-15 -66 -113 -176l-383 -430z" />
<glyph unicode="-" horiz-adv-x="602" d="M8 438l49 242h541l-49 -242h-541z" />
<glyph unicode="." horiz-adv-x="602" d="M123 147q15 73 76 125q62 53 137 56q74 0 115 -56q45 -51 30 -122q-15 -73 -75 -127q-63 -54 -138 -54q-69 0 -114 51q-43 52 -31 127z" />
<glyph unicode="/" horiz-adv-x="602" d="M-168 -43l168 338q60 123 268 553q104 218 211 471l119 293q57 -13 78 -13q24 0 84 13l-127 -260q-167 -344 -240 -504l-256 -545l-160 -346q-49 12 -69 12q-26 0 -76 -12z" />
<glyph unicode="0" d="M53 416q3 124 31 278q32 162 82 295q78 212 225 330q154 130 363 133q202 0 307 -135q84 -111 84 -287q0 -7 -1 -23t-1 -24q-7 -136 -31 -250q-65 -331 -192 -506q-182 -258 -469 -258q-256 0 -351 207q-47 103 -47 240zM352 242q-3 -164 125 -164q86 0 148 100 q27 52 67 174q44 138 86 353q4 20 19 101t22 124q19 172 21 215q12 198 -117 198q-132 0 -201 -210q-53 -151 -114 -457q-59 -304 -56 -434z" />
<glyph unicode="1" d="M279 1180l112 34q119 35 252 91l205 90l131 59l33 -22l-27 -113l-55 -244l-45 -221l-49 -240l-54 -280l-32 -223l-19 -115l-162 4l-184 -4l31 119l47 215l59 282l45 232q13 90 35 227l12 98l-125 -55l-137 -70l-33 74z" />
<glyph unicode="2" d="M-23 -18l23 108l229 203q169 147 263 248q129 135 210 293q69 126 89 239q6 40 6 72q0 54 -19 106q-42 92 -135 92q-197 0 -285 -315l-18 -6l-145 156l55 75q121 142 305 185q86 14 160 14q210 0 317 -96q92 -80 92 -221q0 -47 -8 -91q-41 -172 -182 -325 q-77 -80 -299 -244l-285 -219h293l188 6l134 10l-33 -135l-25 -155l-133 6l-315 12q-233 0 -301 -6z" />
<glyph unicode="3" d="M-10 133l98 113l80 88l18 -10l4 -68q9 -88 56 -131.5t135 -46.5q121 0 203 104q66 85 96 215q18 58 9 111.5t-35 95t-72.5 66.5t-104.5 26q-20 0 -90 -18l29 143q47 -15 76 -18q56 0 116 45q103 70 148 254q10 55 5 108.5t-41 93t-95 39.5q-70 -1 -135.5 -57.5 t-94.5 -132.5l-33 -82l-14 -8l-65 96l-58 82q46 52 76 76q163 135 395 135q93 7 183 -22.5t152 -99.5t59 -163q1 -73 -34 -142t-91 -119.5t-116.5 -86.5t-117.5 -55l76 -14q213 -49 213 -248q0 -22 -8 -84q-18 -107 -82 -195.5t-154 -143.5t-195.5 -83.5t-211.5 -26.5 q-213 0 -320 94q-22 22 -59 70z" />
<glyph unicode="4" d="M-2 324l31 129l14 104l139 154l305 350q173 193 240 280l66 84l147 -4l147 4l-16 -82l-35 -137q-17 -51 -51 -229l-55 -283l-23 -123l86 9l97 10l-29 -127l-23 -139l-98 12l-78 4l-16 -92l-27 -146l-8 -106l-162 4l-184 -4l33 108l32 150l19 86h-279q-97 0 -159 -4z M190 571h404l117 611l-105 -119l-137 -158l-162 -192z" />
<glyph unicode="5" d="M-51 84q13 18 34.5 46.5t34.5 46t21 30.5l74 123l30 -23q-2 -33 7 -78q27 -148 184 -151q124 0 219 123q70 94 96 235q10 65 10 105q0 61 -18 102q-45 99 -160 102q-97 0 -170 -67l-45 -45l-49 33l33 118q2 11 16 71t21 97q33 187 55 342l25 146l133 -15q29 -4 260 -4 l203 11l147 8l-31 -137l-24 -156l-127 14q-98 4 -168 4q-104 0 -193 -6l-121 -12l-26 -84q-38 -153 -45 -189l-13 -71l48 12l94 27q68 12 125 12q105 0 184 -39q178 -82 178 -268q0 -47 -8 -88q-44 -222 -250 -367q-179 -123 -416 -123q-215 0 -368 115z" />
<glyph unicode="6" d="M66 397q0 98 20 207q70 361 266 572q258 276 563 276l56 -2l51 -6l27 -103l-15 -6q-31 3 -108 8q-175 0 -310 -172q-94 -119 -151 -325l-21 -90l56 41q110 71 245 71q125 0 216 -65q88 -72 110 -178q10 -48 10 -86q0 -28 -8 -90q-29 -135 -127 -263q-99 -122 -241 -176 q-99 -41 -230 -41q-169 -3 -262 72q-109 81 -137 223q-10 68 -10 133zM362 270q0 -30 7 -61q30 -131 127 -131q103 0 172 127q47 88 67 205q17 93 17 141q0 169 -129 172q-96 0 -166 -88q-42 -61 -78 -215q-17 -100 -17 -150z" />
<glyph unicode="7" d="M43 23l129 153q135 153 223 266l244 303l199 248l116 156q-125 16 -186 16l-174 -4l-205 -4l-141 -10l28 121q26 147 29 172l158 -13q123 -6 325 -6l291 2l197 2l6 -45l-98 -118q-86 -100 -291 -385q-344 -484 -447 -644l-145 -239l-127 6l-125 -6z" />
<glyph unicode="8" d="M23 313q0 46 8 90q24 128 110 228q84 104 213 145l78 21l-72 24q-153 61 -153 213q0 32 6 66q42 220 297 309q110 40 244 43q134 0 239 -45q85 -38 127 -119q29 -60 29 -123q0 -8 -1 -17.5t-2.5 -21t-2.5 -18.5q-18 -97 -90 -174q-71 -83 -166 -113l-70 -22 q246 -61 246 -283q0 -51 -8 -92q-44 -217 -217 -338q-159 -114 -383 -117q-140 0 -238 49q-194 87 -194 295zM346 258q0 -180 127 -180q70 0 127 57q54 54 82 123q27 74 41 143q14 77 14 150q0 185 -133 182q-100 0 -174 -117q-44 -73 -68 -198q-16 -98 -16 -160zM500 1014 q0 -48 12 -82q30 -90 121 -90q159 0 215 254q8 41 8 82q0 42 -12 79q-36 83 -117 86q-89 0 -152 -83q-53 -72 -67 -162q-8 -41 -8 -84z" />
<glyph unicode="9" d="M117 158q99 -80 190 -80q167 0 311 205q97 152 150 352l14 61l-65 -59q-95 -83 -250 -86q-184 0 -272 119q-64 85 -64 204q0 53 8 97q31 148 131 268q104 119 250 174q107 39 225 39q249 0 349 -195q47 -90 47 -229q0 -90 -21 -201q-44 -227 -153 -421 q-93 -151 -226 -267q-113 -90 -225 -133q-96 -37 -209 -37q-57 0 -104 8l-70 19l-2 70q0 35 -14 92zM463 877q0 -176 127 -179q103 -3 162 103q29 47 47 104q5 17 10 36.5t11 43.5t9 37q17 93 17 145q0 88 -32 131.5t-99 44.5q-172 0 -236 -317q-16 -91 -16 -149z" />
<glyph unicode=":" horiz-adv-x="602" d="M59 145q11 72 76 127q63 51 135 54q73 0 115 -54q45 -52 31 -125q-11 -69 -76 -127q-63 -51 -137 -51t-117 49q-38 54 -27 127zM188 817q15 73 78 127q60 48 135 51q75 0 117 -51q43 -60 27 -125q-11 -70 -76 -129q-63 -51 -135 -51q-69 0 -115 49q-43 52 -31 129z" />
<glyph unicode=";" horiz-adv-x="602" d="M-86 -375l211 494q37 83 78 147q53 68 147 68q52 0 92 -37q31 -42 23 -90q-6 -40 -39 -82q-25 -46 -72 -96l-385 -430zM250 817q11 70 76 129q60 48 135 51q72 0 114 -51q46 -52 31 -127q-12 -72 -76 -127q-63 -51 -137 -51t-117 49q-41 53 -26 127z" />
<glyph unicode="&#x3c;" horiz-adv-x="2160" d="M420 580l29 157l1404 582l-38 -207l-1115 -457l938 -448l-39 -207z" />
<glyph unicode="=" horiz-adv-x="1923" d="M342 221l37 185h1124l-37 -185h-1124zM418 604l37 187h1124l-37 -187h-1124z" />
<glyph unicode="&#x3e;" horiz-adv-x="2160" d="M307 0l39 207l1116 457l-940 448l39 207l1180 -580l-29 -157z" />
<glyph unicode="?" horiz-adv-x="960" d="M184 154q14 76 76 129t137 53q74 0 113 -53q43 -49 31 -129q-15 -75 -78 -129q-57 -54 -137 -54q-75 0 -117 54q-44 61 -25 129zM217 657q0 14 4 50q17 84 80 163q70 74 141 138q6 6 54 50t71 68q63 60 72 113q14 51 -33 94q-45 33 -102 33q-112 0 -185 -94l-22 -31h-41 l8 53l12 97l68 34q43 21 86 31q76 21 160 21q158 0 239 -72q82 -73 82 -174q0 -30 -6 -57q-13 -81 -61 -146q-43 -62 -84 -106q-62 -58 -125 -107q-59 -47 -100 -94q-41 -41 -46 -80q-17 -80 76 -80q28 0 49 8l33 13l21 -17l-25 -45l-31 -57l-61 -10q-46 -4 -76 -4 q-128 0 -196 65q-62 59 -62 143z" />
<glyph unicode="@" horiz-adv-x="1558" d="M39 606q0 44 16 142q28 148 101 272.5t169.5 208.5t212.5 143t230 86t223 27q60 0 121 -7.5t131 -29t123.5 -55t89 -90t35.5 -129.5q0 -30 -6 -68l-74 -379q-25 -127 -25 -154q0 -65 54 -81l35 -3l-9 -49q-146 -45 -204 -49q-142 -3 -158 146q-141 -150 -320 -150 q-125 0 -199.5 61.5t-74.5 172.5q0 17 8 67q14 66 45 116t81.5 86t111 61t145.5 48l131 33q3 1 20 4.5t22.5 4.5t21.5 5.5t23 8t21 10t21 13.5l18 18t17 23t12.5 28t10.5 35q13 73 -48 121.5t-202 48.5q-119 0 -221 -45.5t-176.5 -126.5t-125.5 -187t-77 -231 q-17 -104 -17 -137q0 -106 35 -199.5t98 -162.5t155.5 -109.5t201.5 -40.5h8q171 -2 328 118l18 -14l-37 -78l-29 -71q-170 -72 -393 -72q-103 0 -202.5 24.5t-189 75t-158 122t-108.5 171.5t-40 217zM827 641q0 -113 97 -113q42 0 77 19.5t58 48t41.5 71.5t29 79.5 t19.5 82.5l31 150l-131 -35q-181 -58 -215 -235q-7 -40 -7 -68z" />
<glyph unicode="A" horiz-adv-x="1441" d="M-131 -4l108 156q286 437 566 909l159 276l80 146l74 -6l98 6l23 -146l49 -272q92 -515 205 -909l45 -160l-205 4l-182 -4l-15 145l-30 187l-15 94l-110 12q-70 4 -146 4q-106 0 -141 -4l-115 -12l-51 -92q-33 -57 -96 -185l-74 -149l-108 4zM418 592l71 -8q59 -6 127 -6 q76 0 111 4l72 10l-21 84l-53 264l-27 123l-75 -123l-156 -264z" />
<glyph unicode="B" horiz-adv-x="1320" d="M23 -4l32 106q2 16 15.5 76t21.5 107l55 278l66 328l63 326l25 159l12 107l72 -4l147 -2l150 2l209 4q189 -3 272 -74q86 -71 86 -195q0 -41 -4 -61q-20 -107 -110 -203q-88 -81 -199 -121l-74 -18l70 -27q66 -22 123 -75q55 -49 78 -134q8 -46 8 -71q0 -22 -8 -80 q-46 -228 -236 -342q-83 -50 -186 -72q-85 -14 -181 -14l-168 2l-143 2h-100zM391 145l78 -10q270 0 332 305q10 52 10 84q-6 115 -127 168q-57 16 -121 19l-71 -6l-23 -107l-29 -147l-30 -168zM522 846l82 2q86 3 154 45q110 63 145 219q6 30 6 62q0 165 -209 165l-77 -6 l-21 -98l-31 -123l-22 -133z" />
<glyph unicode="C" horiz-adv-x="1441" d="M66 532q0 86 18 185q74 378 356 588q275 202 647 202q189 0 343 -59l73 -29l-49 -108l-55 -135h-21q-10 19 -55 84q-91 110 -268 110q-236 0 -416 -201q-149 -173 -197 -424q-18 -91 -18 -184q0 -80 14 -149q27 -146 129 -226q108 -77 256 -80q183 0 351 111l73 51 l27 -14l-51 -102l-37 -89l-56 -24q-165 -67 -382 -70q-200 0 -365 70q-120 52 -207 156q-78 97 -98 204q-12 62 -12 133z" />
<glyph unicode="D" horiz-adv-x="1681" d="M43 -16l33 110q45 210 49 228l84 426l80 428q25 116 37 200l10 117l86 -12q50 -4 115 -4q124 0 247 6l220 10q194 0 301 -41q186 -64 262 -276q37 -99 37 -232q0 -86 -15 -178q-74 -349 -340 -573q-246 -209 -616 -209q-105 0 -209 8l-180 8q-92 0 -119 -4zM412 145 l75 -4l115 -4q265 0 430 189q151 167 203 436q18 94 18 176q0 96 -26 170q-54 178 -226 215q-58 11 -219 18l-139 -8l-35 -164l-88 -432l-78 -405z" />
<glyph unicode="E" horiz-adv-x="1081" d="M18 -16l29 108q12 44 49 207l54 272l73 394l45 231l31 186l12 111l181 -12q86 -4 208 -4q222 0 314 6l125 10l-23 -94l-12 -101l-129 9l-252 8l-115 2l-26 -129l-45 -234l-21 -108l129 -2q133 0 234 8l125 8l-27 -98l-10 -96l-127 10q-24 1 -103 4t-129 4l-123 -2 l-24 -117l-51 -270l-27 -133l119 -2q118 0 233 8l150 10l-25 -98l-14 -96l-137 8l-244 8l-262 -2z" />
<glyph unicode="F" horiz-adv-x="1079" d="M33 -4l22 96l47 203l62 295l84 430l35 188l32 174l9 111l149 -8l285 -8l256 2l151 14l-22 -84l-10 -86l-142 8q-87 4 -262 8h-102l-27 -131l-43 -209l-31 -161l92 -2q153 0 283 10l117 8l-23 -84l-12 -90l-113 10q-139 8 -284 8h-88l-23 -120l-53 -293l-31 -197l-12 -92 l-164 4z" />
<glyph unicode="G" horiz-adv-x="1683" d="M72 553q0 79 18 164q68 351 313 547q137 109 295 170q195 73 406 73q124 0 242 -26q76 -15 163 -51l107 -54l-55 -98q-8 -15 -24.5 -58.5t-25.5 -64.5h-36l-39 66q-107 149 -326 149q-169 0 -309 -86q-154 -89 -236 -235q-91 -153 -121 -320q-22 -105 -22 -203 q0 -138 51 -229q107 -191 361 -191q67 0 143 13l78 18l28 88q3 11 9 34.5t11 46t9 44.5q5 24 31 185l14 124l176 -4l170 4l-33 -108l-40 -184l-31 -150q-13 -76 -13 -164l-116 -24q-138 -33 -256 -47q-102 -13 -197 -13q-394 0 -579 176q-166 166 -166 408z" />
<glyph unicode="H" horiz-adv-x="1683" d="M35 -4l31 137l69 303q49 237 72 344l41 221q42 215 59 347l19 135l172 -6l176 6l-37 -137l-37 -175l-41 -188l-18 -88l141 -10q57 -4 176 -4q156 0 211 4l135 10l17 88l36 188l27 175l19 137l176 -6l172 6l-35 -135q-13 -50 -76 -347l-43 -221l-63 -329l-52 -304 l-22 -151l-162 4l-186 -4l35 145l57 258l41 193l20 106l-139 11l-178 6q-123 0 -209 -4l-137 -13l-21 -112l-35 -185q-30 -138 -45 -270l-18 -135l-176 4z" />
<glyph unicode="I" horiz-adv-x="718" d="M39 -4l29 108l49 220l86 424l69 374q32 155 45 269l11 92l174 -6l174 6l-23 -92q-14 -41 -61 -273l-78 -377l-82 -426q-34 -213 -35 -225l-10 -94l-170 4z" />
<glyph unicode="J" horiz-adv-x="720" d="M-131 -248l41 4q95 14 158 152q21 50 61 209l55 291l60 292l63 359l51 274l19 152l164 -8l182 8l-39 -150q-35 -158 -57 -276l-68 -348q-34 -167 -47 -299q-8 -44 -20.5 -118t-16.5 -95q-49 -252 -211 -394q-150 -139 -309 -151l-66 4z" />
<glyph unicode="K" horiz-adv-x="1359" d="M33 -4l30 129l41 186l46 211l83 424l43 254l29 166l17 117l170 -6l176 6l-33 -119l-35 -166l-53 -244l-29 -147l156 143l170 170q138 133 237 242l105 121l135 -6l149 6l-151 -127l-195 -174l-252 -228l-94 -92l88 -194l162 -334l111 -221l65 -117l-207 4l-213 -4 l-45 115q-29 81 -90 206l-90 205l-67 144l-27 -144l-41 -205q-23 -120 -31 -190l-16 -131l-164 4z" />
<glyph unicode="L" horiz-adv-x="1079" d="M45 -16l29 102q15 60 53 233l92 478l74 385q25 121 33 196l8 105l180 -6l168 6l-27 -105q-3 -13 -49 -200l-76 -385l-127 -656l185 2q134 0 213 6l112 9l-20 -86l-12 -84l-152 12q-28 1 -73.5 1.5t-120.5 1t-134 1.5q-155 0 -194 -2z" />
<glyph unicode="M" horiz-adv-x="1921" d="M-68 -4l56 137q30 83 75.5 214.5t63.5 180.5l90 263l160 495l59 197l90 -6l84 6l54 -221l86 -318q57 -204 104 -338l49 -149l107 143l239 342q146 208 262 387l93 154l84 -6l88 6l-17 -150q-27 -308 -41 -549q-23 -329 -26 -598l-4 -190l-168 4l-193 -4l19 133 q10 87 20.5 172.5t16.5 134t8 66.5l20 297l19 176l-123 -182l-183 -258q-128 -178 -254 -377l-98 -162l-43 4l-45 -4l-22 100q-5 25 -23.5 90.5t-28.5 104.5l-82 280l-67 230l-51 168l-56 -174l-90 -299q-62 -210 -102 -369l-31 -131l-100 4z" />
<glyph unicode="N" horiz-adv-x="1683" d="M43 -4l20 86q6 26 18 83t25 115t27 115l80 391l66 347l30 213l23 137l104 -6l107 6l75 -131q37 -59 183 -267l194 -270q70 -98 193 -262l86 -111l33 189l43 237l45 267l39 237l18 111l88 -6l92 6l-16 -92l-53 -228l-88 -428l-82 -405l-43 -221l-17 -113l-94 4l-104 -4 l-66 110q-68 112 -149 228q-53 81 -215 301l-203 272l-86 121l-21 -86l-47 -225l-57 -320q-32 -164 -53 -313l-13 -88l-86 4z" />
<glyph unicode="O" horiz-adv-x="1800" d="M70 545q0 78 16 172q70 358 350 579q263 208 633 211q344 0 520 -182q91 -94 125 -213q21 -96 21 -174q0 -79 -19 -176q-67 -356 -348 -578q-268 -212 -627 -215q-353 0 -536 195q-135 156 -135 381zM414 496q0 -111 37 -193q45 -92 122 -141q82 -56 188 -56h11 q236 0 408 218q131 178 186 434q23 134 23 200q0 118 -35 211q-29 85 -107 144q-83 57 -215 57q-237 0 -414 -219q-129 -170 -180 -440q-24 -141 -24 -215z" />
<glyph unicode="P" horiz-adv-x="1241" d="M35 -4l22 92l41 174l60 277l65 342l49 264q29 151 41 254l13 84l168 -6l186 2l184 4q250 -3 336 -111q31 -35 51 -102q6 -37 6 -74q0 -50 -12 -106q-86 -451 -653 -451l-100 2l-19 -104l-49 -254l-41 -287l-164 4zM520 780l37 -4q277 3 342 318q6 43 6 75q0 167 -188 170 l-74 -4l-33 -118l-39 -164l-36 -181z" />
<glyph unicode="Q" horiz-adv-x="1800" d="M106 535q0 78 19 186q70 354 350 577q271 209 635 209q349 0 528 -194q131 -152 131 -375q0 -95 -16 -174q-48 -240 -182 -414q-146 -193 -365 -284l-119 -48l130 -100q113 -81 198 -129l156 -88q-82 -23 -162 -53q-45 -14 -176 -76l-129 115q-152 132 -205 176l-139 106 l-76 2q-148 13 -252 62q-326 137 -326 502zM451 502q0 -111 32 -193q89 -203 310 -203h6h6q229 0 409 222q132 166 187 438q18 105 18 195q0 63 -10 135q-15 86 -74 164q-85 110 -264 110q-238 0 -412 -213q-129 -153 -184 -436q-24 -141 -24 -219z" />
<glyph unicode="R" horiz-adv-x="1320" d="M27 -4l34 121q50 237 52 245l51 254l57 304l47 245q29 140 39 230l10 88l162 -6l213 2l195 4q194 0 289 -86q84 -87 84 -207q0 -32 -7 -76q-21 -92 -57 -147q-58 -104 -156 -162q-62 -39 -206 -74l45 -117q112 -291 219 -503l61 -115l-207 4l-188 -4l-43 119l-88 245 q-42 110 -103 248l-38 86l-17 -86l-47 -248q-23 -123 -41 -245l-14 -119l-174 4zM510 782l72 -2q117 3 211 107q78 84 106 213q8 58 8 76q0 176 -211 176l-80 -6l-18 -103l-35 -182l-41 -209z" />
<glyph unicode="S" horiz-adv-x="1079" d="M-33 61q39 69 68 134q21 54 45 133h51q34 -222 233 -222h5q119 0 190 50q95 70 113 168q3 16 3 30q0 90 -93 156q-32 22 -131 82l-121 74q-143 90 -164 227q-4 32 -4 55q0 41 10 103q20 107 72 190q58 91 149 156q151 107 359 110q159 0 272 -65l47 -33l-57 -100 q-4 -8 -20.5 -47t-30.5 -68h-39q-25 104 -66 131q-57 45 -145 45q-95 0 -164 -49q-79 -55 -94 -143q-4 -21 -4 -40q0 -86 77 -143q34 -26 152 -94q199 -115 240 -192q28 -40 38 -121q2 -21 2 -41q0 -48 -10 -94q-41 -215 -231 -359q-169 -125 -397 -125q-78 0 -154 15 q-84 18 -127 41z" />
<glyph unicode="T" d="M160 1323l24 84l9 86l172 -6q245 -10 376 -10q133 0 383 10l170 6l-20 -86l-12 -84l-138 8l-166 8h-86l-20 -92l-78 -405l-78 -418l-47 -285l-22 -143l-172 4l-176 -4l34 143l64 285l84 418l80 405l20 92h-88l-172 -8z" />
<glyph unicode="U" horiz-adv-x="1681" d="M156 362v17q0 92 28 246l70 352l47 266l25 154l8 86l172 -6l176 6l-23 -92l-34 -148l-58 -268l-53 -264q-28 -153 -31 -269v-16q0 -87 31 -147q67 -145 283 -148q235 0 370 184q97 133 152 396l53 276l47 258l23 144l10 94l111 -6l106 6l-27 -92l-32 -146l-56 -260 q-69 -336 -100 -453q-84 -281 -252 -405q-105 -80 -244 -121q-118 -35 -256 -35q-304 0 -456 168q-87 90 -90 223z" />
<glyph unicode="V" horiz-adv-x="1441" d="M186 1483l203 -6l178 6l8 -117q45 -370 125 -782l35 -183l105 183q303 518 430 778l57 121l113 -6l112 6l-77 -123l-209 -332q-115 -189 -320 -539l-196 -356l-78 -137l-88 4l-113 -4l-22 143l-60 344l-102 543q-5 23 -31 145t-41 183z" />
<glyph unicode="W" horiz-adv-x="2162" d="M178 1483l195 -6l184 6l2 -150q2 -109 16 -307q7 -114 33 -381l25 -209l112 203q127 223 218 393l149 287l82 164l113 -6l118 6l13 -156l30 -293q9 -74 60 -401l28 -180l101 182q249 479 338 688l67 160l109 -6l119 6l-101 -164q-64 -109 -161 -287l-279 -514 q-59 -106 -172 -332l-88 -190l-105 4l-116 -4l-19 186q-22 212 -43 355l-51 331l-25 170l-94 -168l-188 -327q-170 -314 -199 -369l-90 -178l-100 4l-123 -4l-14 178l-31 348l-51 477q-9 97 -35 318z" />
<glyph unicode="X" horiz-adv-x="1320" d="M-96 -4l86 92l188 217l205 242l119 145l-45 127l-138 375l-71 190l-41 99l207 -6l198 6l21 -88l49 -178l51 -156l31 -90l82 92q49 59 115 145l141 187l63 88l121 -6l127 6l-80 -88l-170 -191l-209 -233l-127 -146l39 -120l92 -254l129 -365l39 -90l-208 4l-193 -4l-20 82 q-46 161 -62 225l-47 139l-31 105l-90 -105l-115 -145q-91 -117 -155 -211l-62 -90l-112 4z" />
<glyph unicode="Y" horiz-adv-x="1320" d="M172 1483l219 -6l195 6l20 -105q7 -52 43 -200q14 -66 66 -224l51 -163l117 167q77 117 149 230q30 44 115 190l57 105l113 -6l119 6l-90 -109q-19 -21 -140 -192l-270 -381l-121 -189l-37 -112q-3 -15 -8.5 -38t-13 -57.5t-13.5 -62.5q-27 -163 -34 -221l-15 -125 l-166 4l-180 -4l35 131l41 180l37 187l24 118l-63 174l-123 383q-4 9 -32 82.5t-48 118.5z" />
<glyph unicode="Z" horiz-adv-x="1320" d="M-98 31l86 98q72 78 276 336l301 387l242 317l127 172h-103l-219 -4l-245 -8l-123 -6l20 92l10 78l127 -8q107 -8 318 -8q245 0 438 8l232 8l8 -47l-109 -133l-272 -338l-273 -352l-241 -316l-123 -168l104 -2q111 0 267 6q163 3 239 17q15 2 36 6t56.5 11.5t61.5 12.5 l-29 -108l-12 -98l-144 8q-134 5 -579 8q-201 0 -250 -2l-215 -14z" />
<glyph unicode="[" horiz-adv-x="600" d="M-90 -387l63 258l43 201l95 483l94 481l33 201l41 256q118 -12 233 -16q65 0 231 16l-20 -72l-10 -73q-75 16 -121 16h-84l-37 -195l-117 -616l-121 -614l-40 -197h83q61 0 127 18l-16 -75l-12 -72q-157 16 -228 16q-92 0 -237 -16z" />
<glyph unicode="\" d="M152 1612q60 -13 79 -13q24 0 84 13l7 -293q3 -172 26 -471q27 -315 53 -553l39 -338q-48 9 -71 12q-25 0 -74 -12l-27 346l-43 545q-9 114 -25 288.5t-20 215.5z" />
<glyph unicode="]" horiz-adv-x="600" d="M-139 -387l20 72l13 75q53 -18 118 -18h84l39 197l117 614l123 616l39 195h-86q-60 0 -125 -16l14 73l12 72q114 -12 224 -16q71 0 241 16l-63 -258l-43 -201l-92 -481l-95 -481l-34 -201l-41 -258q-160 16 -234 16q-92 0 -231 -16z" />
<glyph unicode="^" horiz-adv-x="1081" d="M49 1049l19 98l94 65q220 160 358 371l21 37h110l8 -33q45 -203 211 -375l68 -65l-18 -98l-66 26q-53 23 -135 86q-85 62 -133 113q-25 30 -45 57l-68 -57q-151 -115 -344 -199z" />
<glyph unicode="_" horiz-adv-x="1081" d="M-10 -539l20 109h1082l-21 -109h-1081z" />
<glyph unicode="`" d="M315 1503l19 43l129 -4l145 4q14 -113 27 -174q37 -156 55 -221h-82q-163 216 -293 352z" />
<glyph unicode="a" horiz-adv-x="1081" d="M-4 203q0 29 6 67q26 127 118.5 196.5t264.5 115.5l133 32q3 1 24.5 5.5t28.5 6t26.5 7.5t28 11t23 14.5t22 20t15 25.5t10.5 33q5 23 5 43q1 56 -37 88q-50 44 -156 43q-57 0 -126.5 -30t-115.5 -86h-37l7 61l-3 64q184 133 412 133q342 0 342 -242q0 -43 -8 -82 l-33 -158l-51 -262q-3 -18 -10 -54t-10 -58.5t-3 -40.5q0 -66 54 -82l37 -2l-11 -49q-149 -46 -204 -50h-6q-136 0 -152 146q-141 -150 -322 -150q-124 0 -198 61.5t-74 172.5zM311 225q0 -114 99 -114q42 0 77 19.5t58 48t41.5 71.5t29 79.5t19.5 82.5l29 149l-127 -35 q-184 -58 -218 -235q-8 -31 -8 -66z" />
<glyph unicode="b" d="M-57 -8l39 145q16 67 61 275l72 362l59 334l41 219l31 191l12 88l160 -7l153 7l-22 -90q-15 -50 -43 -187l-49 -227l-33 -187l57 50q53 38 121 61q73 27 156 27q84 0 149 -29q189 -80 189 -324q0 -71 -19 -161q-27 -150 -100 -271q-77 -131 -211 -217q-133 -82 -274 -82 q-174 0 -256 101l-33 49l-80 -47l-127 -80h-53zM311 264q0 -40 6 -74q24 -114 140 -114q175 0 260 252q28 96 43 170q24 117 24 196q0 24 -4 60q-12 155 -151 155q-123 0 -187 -110q-35 -54 -57 -129q-21 -70 -51 -193q-17 -112 -21 -158q-2 -20 -2 -55z" />
<glyph unicode="c" horiz-adv-x="1081" d="M57 373q0 55 13 125q20 111 80 219t149 180q84 72 203 113q119 43 248 43q175 0 294 -72l46 -35l-52 -84l-59 -108h-49q-4 59 -8 71q-6 41 -37 68q-21 27 -64 41q-35 12 -80 12q-145 0 -252 -143q-83 -116 -110 -273q-14 -74 -14 -141q0 -89 28 -153q66 -138 234 -138 q96 0 190 54l60 38l32 -16l-37 -57l-30 -58l-60 -30q-117 -60 -256 -60q-251 0 -372 142q-97 111 -97 262z" />
<glyph unicode="d" d="M-8 326q0 74 16 168q80 410 373 524q80 35 178 35q75 0 143 -27q58 -22 93 -72l26 -41l27 117l47 262q7 43 19.5 114.5t15.5 94.5l12 105l168 -7l145 7l-32 -115l-43 -205l-52 -256l-96 -487l-47 -238q-23 -120 -37 -223l-6 -86l-151 4l-154 -4l27 76l20 75 q-82 -98 -154 -135q-79 -43 -188 -43q-223 0 -305 158q-45 77 -45 199zM303 322q0 -55 10 -103q24 -106 142 -106h4q148 0 231 219q38 100 58 198q18 82 18 166q0 66 -18 121q-38 92 -142 92q-115 0 -190 -118q-49 -80 -68 -156l-20 -88q-25 -138 -25 -225z" />
<glyph unicode="e" horiz-adv-x="1079" d="M59 373q0 60 17 143q23 131 90 250q45 78 137 160q160 127 373 127q214 0 311 -127q70 -95 70 -224q0 -46 -10 -114l-25 -105l-61 6l-115 7l-111 6h-356l-6 -70q-2 -16 -2 -49q0 -106 47 -174q68 -92 203 -92q104 0 215 47l69 31l23 -19l-43 -63l-45 -66l-64 -29 q-35 -13 -102 -28q-82 -21 -170 -21q-379 0 -434 297q-11 64 -11 107zM406 616h335l11 58q10 72 10 117q0 160 -115 163q-113 0 -184 -149q-29 -63 -43 -123z" />
<glyph unicode="f" horiz-adv-x="718" d="M31 -4l22 78l41 168l43 207l47 247l39 213l-65 -4l-78 -12l20 76l6 71l80 -10l60 -6q78 234 190 377q166 214 355 217l40 -2l27 -8l-37 -129l-33 -136l-26 -10l-47 27q-40 21 -94 24q-49 0 -86 -24q-42 -27 -48 -70q-3 -12 -3 -30q0 -56 28 -166l16 -70l88 6l127 10 l-18 -71l-10 -76l-115 12l-92 4l-41 -217l-49 -252l-39 -200l-25 -164l-10 -80l-160 4z" />
<glyph unicode="g" horiz-adv-x="1081" d="M-27 -223q0 15 4 51q27 152 179 213l57 18l-33 25q-49 40 -49 99q0 17 4 36q21 110 189 178l61 25l-55 12q-66 23 -109 68q-67 64 -67 157q0 27 6 62q31 164 200 258q122 74 316 74l127 -4q126 -7 256 -7h110l-14 -59l-6 -59q-78 12 -88 14l-64 2h-32q63 -85 63 -166 q0 -15 -4 -43q-47 -221 -301 -301q-77 -24 -129 -24l-107 -3q-84 0 -96 -65q-1 -7 -1 -14q0 -29 24 -46q29 -21 96 -24l186 -8q285 -6 285 -203q0 -21 -8 -61q-38 -203 -234 -326q-165 -98 -379 -98q-94 0 -180 18q-207 43 -207 201zM184 -178q0 -75 54 -117q57 -48 174 -51 q57 0 106 14q70 16 121 72q48 48 72 131q4 20 4 38q0 112 -148 120l-104 2l-154 4l-43 -31q-63 -51 -78 -133q-4 -18 -4 -49zM434 631q0 -129 108 -129h5q145 0 194 246q9 43 9 75q0 127 -111 133q-144 -3 -193 -229q-12 -74 -12 -96z" />
<glyph unicode="h" d="M-35 -4l33 139l59 275l82 407l74 383q29 148 45 273l21 135l167 -6l150 6l-39 -135q-5 -26 -13.5 -65.5t-21.5 -100.5t-22 -105l-41 -217l-21 -96l64 61q123 105 284 105q279 0 279 -275q0 -48 -14 -137l-31 -154l-41 -196q-29 -176 -31 -195l-8 -102l-149 4l-164 -4 l30 117q38 171 43 190l39 182l29 162q4 25 4 66q0 156 -143 159q-126 0 -189 -106q-35 -62 -51 -131l-33 -143l-37 -187l-28 -180l-12 -129l-150 4z" />
<glyph unicode="i" horiz-adv-x="600" d="M-16 -4l28 94l41 189l47 225l41 217l33 199l10 108l156 -6l158 6l-27 -104q-18 -66 -45 -199l-47 -221l-39 -225l-31 -189l-12 -94l-156 4zM258 1421q12 65 68 115q57 46 129 49q66 0 104 -47q31 -33 31 -87q0 -14 -2 -30q-12 -63 -74 -116q-57 -48 -123 -48 q-68 0 -110 48q-27 34 -27 79q0 17 4 37z" />
<glyph unicode="j" horiz-adv-x="600" d="M-211 -360q65 16 121 49q49 39 74 106q21 45 69 242l45 233l43 226l41 225q23 124 33 199l12 110l156 -6l160 6l-27 -104l-49 -207l-47 -223l-39 -230l-49 -237q-48 -214 -172 -326q-117 -100 -346 -145zM301 1423q12 65 68 115q57 46 127 49q68 0 106 -49q31 -38 31 -90 q0 -12 -2 -25q-12 -66 -74 -116q-56 -47 -123 -47q-69 0 -110 47q-27 34 -27 79q0 17 4 37z" />
<glyph unicode="k" horiz-adv-x="1081" d="M-53 -4l24 90l37 158l35 172l57 286l54 285l63 348l31 191l12 82l148 -6l165 6l-18 -80l-43 -189l-74 -356l-59 -287l-23 -118l19 -3q23 5 112 82l148 134q64 55 158 163l65 76l119 -6l131 6l-109 -84l-208 -178l-158 -131l47 -109l108 -241l93 -211l41 -80l-172 4 l-187 -4l-26 82l-82 209q-63 152 -88 174l-31 20l-14 -75l-31 -166l-25 -156l-10 -88l-135 4z" />
<glyph unicode="l" horiz-adv-x="602" d="M-12 -4l30 137l66 295l84 412l61 325q35 192 52 314l20 129l152 -6l161 6l-32 -129q-19 -82 -70 -314l-66 -327l-75 -400l-49 -305l-21 -137l-158 4z" />
<glyph unicode="m" horiz-adv-x="1800" d="M14 -4l19 74l47 180l51 254l47 258q21 103 27 168l10 100l166 -6l145 6l-28 -76l-17 -69l64 59q129 114 295 117q83 0 153 -39q75 -46 92 -150q183 189 371 189q156 0 227 -105q43 -54 43 -155q0 -52 -8 -101l-39 -184l-28 -143l-27 -131q-20 -112 -25 -176l-4 -70 l-149 4l-164 -4l18 63q36 141 46 193l28 143l27 131q29 181 29 218q0 130 -132 133q-162 0 -217 -193l-32 -152l-25 -124l-29 -148q-24 -124 -30 -199l-4 -65l-144 4l-170 -4l25 80q4 16 10 42t15.5 69t17.5 75l28 141l27 148q25 149 25 198v11q-15 117 -133 117h-5 q-149 0 -204 -195l-31 -121l-31 -158l-29 -157l-26 -172l-8 -78l-146 4z" />
<glyph unicode="n" d="M18 -6l31 104l43 197l41 207l47 256q6 38 16 96.5t13 79.5l8 94l162 -6l143 6q-12 -27 -30 -82l-13 -61l82 67q128 98 283 101q144 0 221 -95q39 -48 51 -102q4 -20 4 -65q0 -62 -10 -113l-45 -223l-37 -189q-27 -138 -29 -182l-6 -90l-159 6l-154 -6l22 102l50 189 l36 178l29 184q8 36 8 70q0 153 -143 153q-181 -3 -236 -227l-40 -174l-35 -180q-24 -118 -33 -201l-6 -94l-150 6z" />
<glyph unicode="o" d="M53 354q0 71 10 127q17 87 60 187q79 181 244 284q154 101 352 101q238 0 356 -142q80 -96 80 -249q0 -62 -12 -132q-84 -422 -465 -534q-92 -27 -189 -27q-237 0 -354 135q-82 91 -82 250zM356 291q0 -223 158 -223q223 0 317 469q23 128 23 202q0 212 -147 215 q-241 -3 -330 -458q-21 -117 -21 -205z" />
<glyph unicode="p" d="M-55 -449l22 74q16 60 41 166l39 201l117 604l35 195l24 163l10 76l156 -6l154 6l-29 -69l-18 -70l36 41q51 54 121 84q84 37 181 37q211 0 299 -172q43 -82 43 -209q0 -80 -17 -164q-43 -230 -172 -371q-151 -168 -366 -168q-68 0 -132 23q-64 16 -106 71l-39 48 l-20 -125l-35 -187l-27 -176l-8 -72l-145 7zM408 334q0 -42 6 -76q21 -145 149 -145q167 0 246 241q15 47 43 158q11 59 14 113q2 20 2 59q0 227 -151 227q-115 0 -199 -143q-34 -58 -67 -158q-4 -16 -23 -106l-16 -103q-4 -50 -4 -67z" />
<glyph unicode="q" horiz-adv-x="1200" d="M100 342q0 76 17 154q46 240 172 378q161 176 375 179q186 0 264 -160l14 61v76l160 -6l153 6l-22 -76l-39 -163l-57 -293l-103 -504l-37 -199q-24 -127 -26 -160l-4 -84l-150 7l-166 -7l23 80q24 105 39 170l41 203l24 117q-43 -47 -61 -60q-42 -39 -111 -65 q-83 -27 -151 -27q-87 0 -160 31q-75 32 -115 86q-80 100 -80 256zM412 356q-2 -20 -2 -38q0 -55 14 -101q27 -104 137 -104q101 0 180 110q48 78 66 139q25 59 43 150q15 68 18 143q1 13 1 27q0 57 -11 113q-30 113 -139 116q-124 0 -205 -153q-58 -111 -82 -250 q-17 -78 -20 -152z" />
<glyph unicode="r" horiz-adv-x="841" d="M39 -6l24 84q5 20 19 80.5t24 103.5l52 256q33 163 45 244l26 196l11 70l153 -6l152 6l-39 -121l-27 -121q171 263 361 263l57 -2q-42 -131 -53 -195l-19 -100l-22 -13l-37 23q-50 16 -82 16q-88 0 -149 -61q-68 -68 -99 -207l-35 -176q-32 -194 -39 -250l-10 -90l-143 6 z" />
<glyph unicode="s" horiz-adv-x="841" d="M-4 55l35 90l30 91h43l29 -58q61 -110 203 -110q63 0 119 32q59 44 71 107q1 8 1 15q0 30 -19 52q-24 28 -82 58q-21 10 -88.5 39t-110.5 53.5t-75 56.5q-43 49 -43 133q2 102 42.5 192t118.5 152q125 95 291 95q128 0 227 -54l52 -32l-47 -86l-41 -97h-45 q-23 170 -185 170q-67 0 -116 -32q-56 -40 -68 -101q-2 -10 -2 -20q0 -54 57 -88q73 -35 123 -51q58 -24 88.5 -39t62.5 -36t47 -44t26.5 -55.5t15.5 -77.5q0 -32 -6 -66q-17 -75 -50 -131q-62 -118 -176 -184q-105 -61 -223 -61q-11 0 -22 1q-141 0 -222 47z" />
<glyph unicode="t" horiz-adv-x="718" d="M63 893l23 80l16 67q57 -14 74 -16h68l12 57q13 61 16 127l4 70l162 61l156 64l18 -17l-24 -90q-37 -128 -51 -215l-15 -57l99 4l110 12l-22 -71l-7 -76q-29 5 -67 9t-47 5l-86 2l-127 -645q-14 -84 -14 -117q0 -9 1 -14q18 -62 97 -65q33 0 57 8l41 12l-12 -74l-33 -12 q-50 -11 -88 -18q-76 -13 -113 -13q-56 0 -118 19q-100 30 -109 106q-3 16 -3 39q0 51 17 135l123 639l-78 -2q-55 -7 -80 -14z" />
<glyph unicode="u" d="M80 172q0 89 14 160l47 237l41 211q24 109 27 168l6 82l158 -8l155 8l-24 -86q-15 -53 -41 -162l-39 -209l-39 -221q-6 -20 -6 -59q0 -141 141 -141q65 0 127 41q63 50 90 108q14 36 35 115l33 157l37 209q25 121 28 166l7 82l155 -8l158 8l-25 -86q-17 -56 -41 -162 l-41 -211l-45 -225l-28 -164q-17 -80 -17 -110l-4 -76l-151 4l-156 -4l29 76q8 43 22 100q-150 -203 -362 -203q-103 0 -189 51q-93 54 -102 152z" />
<glyph unicode="v" horiz-adv-x="1081" d="M143 1028l185 -6l161 6l13 -129l28 -272l29 -221l16 -109l60 100l123 219q115 217 153 293l54 119l98 -6l90 6l-104 -166l-131 -221q-66 -115 -179 -305l-121 -223l-61 -117l-121 4l-114 -4l-19 121l-37 262l-41 248l-39 211z" />
<glyph unicode="w" horiz-adv-x="1681" d="M145 1028l187 -6l141 6l4 -119q2 -72 17 -252l24 -239l14 -133l66 129l119 241l119 252l53 121l131 -6l121 6l8 -121l20 -264l23 -221l16 -131l72 133q85 163 113 221q6 13 48.5 109.5t69.5 154.5l48 119l92 -6l92 6l-72 -119q-131 -216 -407 -759l-74 -154l-121 4 l-129 -4l-12 164q-15 205 -33 379l-23 178l-86 -176q-134 -268 -182 -377l-76 -168l-129 4l-120 -4l-17 166q-9 92 -31.5 269t-27.5 222l-37 254z" />
<glyph unicode="x" horiz-adv-x="1081" d="M-39 -4l80 84l262 282l96 111l-41 105l-75 178l-80 180l-41 92l192 -6l172 6l25 -84l53 -147l37 -103l96 105q55 59 123 147l64 82l86 -6l104 6l-74 -80l-260 -266l-88 -94l39 -101l86 -213l84 -204l35 -74l-170 4l-193 -4l-26 78l-64 190l-34 96l-89 -98 q-107 -134 -145 -180l-65 -86l-82 4z" />
<glyph unicode="y" horiz-adv-x="1081" d="M102 -444l97 120q64 92 133 199l84 125l-47 199l-76 350l-78 350l-29 131l174 -6l164 6l15 -127l34 -215l41 -229l21 -97l57 95l131 225q92 165 121 223l60 125l81 -6l101 6l-76 -127l-217 -348l-217 -356l-189 -318l-125 -209l-61 -116l-96 4z" />
<glyph unicode="z" horiz-adv-x="1081" d="M-39 -18l19 96l61 74l283 315q23 27 118 140t170 202l70 84q-72 14 -100 14l-131 -2l-166 -4l-95 -8l21 78l10 69q159 -18 279 -18h215q222 3 280 8l105 10l-19 -88l-198 -227l-248 -285l-266 -311l71 -14h213l166 8l94 8l-20 -74l-8 -75l-115 10q-230 8 -508 8h-80 q-108 -4 -221 -18z" />
<glyph unicode="{" d="M211 553l12 70q29 4 65.5 20t55.5 31q48 33 74 104q21 45 69 242l60 242q46 155 151 243q119 102 344 146l23 -82q-78 -23 -119 -51q-40 -27 -76 -105q-24 -61 -69 -244l-35 -157q-45 -214 -172 -326q-69 -57 -172 -98q85 -36 133 -96q57 -77 57 -203q0 -47 -10 -125 l-31 -180q-27 -178 -24 -242q0 -73 31 -107q40 -31 102 -49l-53 -84q-211 44 -291 146q-57 72 -57 196q0 31 2 47l38 265q29 194 25 241q0 73 -31 107q-28 32 -102 49z" />
<glyph unicode="|" horiz-adv-x="1081" d="M274 -541l420 2163h111l-420 -2163h-111z" />
<glyph unicode="}" d="M8 -414q75 20 119 49q40 28 76 107q24 57 69 242l39 180q49 217 172 328q71 59 172 96q-87 40 -133 98q-57 75 -57 207q0 47 10 119l27 157q27 178 24 244q0 72 -30 105q-38 30 -103 51l56 82q207 -44 290 -146q65 -89 56 -243l-37 -242q-28 -183 -25 -242q3 -72 35 -104 q12 -15 42 -31t56 -20l-12 -70q-81 -17 -119 -49q-47 -32 -76 -107q-22 -46 -69 -241l-62 -265q-49 -155 -151 -243q-122 -102 -344 -146z" />
<glyph unicode="~" horiz-adv-x="2162" d="M387 498l43 51q119 140 219 180q76 36 197 43q104 0 262 -82q147 -78 258 -78q123 -3 254 93l37 28l112 -100q-66 -66 -114 -103q-64 -50 -160 -84q-83 -26 -152 -26q-100 0 -192 37l-123 57q-138 66 -227 66q-159 -6 -291 -156z" />
<glyph unicode="&#xa9;" horiz-adv-x="1081" d="M29 995q0 47 10 109q23 125 117 254q88 117 219 182q137 70 268 70q138 0 242 -68q101 -65 147 -184q27 -76 27 -156q0 -54 -8 -98q-22 -126 -119 -256q-82 -113 -219 -184q-136 -68 -264 -68q-210 0 -330 147q-90 110 -90 252zM106 1020q0 -59 23 -133q39 -102 129 -158 q79 -54 203 -57q176 0 327 127q158 133 187 305q8 41 8 88q0 122 -78 215q-100 127 -276 127q-182 0 -328 -125q-148 -121 -186 -305q-9 -65 -9 -84zM238 1028q0 22 8 76q30 155 141 235t262 80q76 0 135 -20l29 -15l-16 -43l-25 -53h-6q-4 7 -13 18t-12 17q-43 43 -106 43 q-95 0 -166 -80q-59 -65 -80 -170q-8 -50 -8 -78q0 -31 6 -55q13 -62 51 -90q40 -30 103 -33q76 0 141 45l29 19l10 -6l-19 -39l-14 -37l-22 -8q-72 -29 -156 -29q-72 0 -145 29q-43 17 -80 63q-36 41 -41 82q-6 21 -6 49z" />
<glyph unicode="&#xab;" horiz-adv-x="960" d="M90 516l107 107q60 66 133 151l108 131q54 -69 140 -92l-78 -72q-54 -54 -117 -131l-78 -94l39 -88q41 -97 78 -149l41 -64q-86 -15 -176 -86l-49 113q-52 110 -88 172zM449 516l106 107q18 20 135 151l107 131q54 -70 139 -92l-78 -72q-54 -54 -117 -131l-77 -94l38 -88 q50 -110 78 -149l41 -64q-86 -15 -176 -86l-49 113q-30 73 -88 172z" />
<glyph unicode="&#xad;" horiz-adv-x="602" d="M8 438l49 242h541l-49 -242h-541z" />
<glyph unicode="&#xae;" horiz-adv-x="1081" d="M29 995q0 47 10 109q23 125 117 254q88 117 219 182q137 70 268 70q138 0 242 -68q101 -65 147 -184q27 -76 27 -156q0 -54 -8 -98q-22 -126 -119 -256q-82 -113 -219 -184q-136 -68 -264 -68q-210 0 -330 147q-90 110 -90 252zM106 1020q0 -59 23 -133q39 -102 129 -158 q79 -54 203 -57q176 0 327 127q158 133 187 305q8 41 8 88q0 122 -78 215q-100 127 -276 127q-182 0 -328 -125q-148 -121 -186 -305q-9 -65 -9 -84zM289 821l14 49q10 32 21 99l20 100l23 121l20 100q2 14 5.5 34.5t5.5 33.5t3 22l2 37l68 -4l84 2l78 2q80 0 115 -35 q41 -41 32 -114q-6 -26 -20 -58q-25 -40 -64 -65q-16 -10 -84 -31l17 -45q57 -139 90 -201l24 -47l-84 2l-73 -2l-19 47l-35 101q-5 12 -11.5 27t-14.5 36t-14 35l-17 35l-6 -35l-18 -98q-7 -26 -17 -101l-6 -47l-72 2zM481 1137h31q49 0 84 41q25 27 45 86q18 100 -84 100 l-31 -2l-22 -113l-15 -84z" />
<glyph unicode="&#xbb;" horiz-adv-x="960" d="M12 215l68 64q53 53 135 149l72 88l-41 94q-49 99 -68 131l-47 72q92 21 172 92l57 -131q40 -88 78 -151l62 -107l-97 -102q-43 -45 -157 -172l-94 -113q-57 69 -140 86zM371 215l67 64q39 39 137 149l70 88l-41 94q-32 71 -65 131l-50 72q97 22 173 92l57 -131 q30 -67 78 -151l61 -107l-96 -102q-30 -31 -85 -92t-73 -80l-94 -113q-57 69 -139 86z" />
<glyph unicode="&#x401;" horiz-adv-x="1081" d="M-29 -16l31 108q31 124 45 207l55 272l74 394l45 231l31 186l14 111l178 -12q82 -4 211 -4q215 0 314 6l125 10l-25 -94l-14 -101l-125 9l-254 8l-115 2l-26 -129l-46 -236l-18 -106l125 -2q134 0 235 8l125 8l-24 -98l-14 -96l-127 10q-162 5 -230 8l-123 -4l-24 -117 l-52 -268l-26 -133l119 -2q118 0 233 8l148 10l-21 -98l-16 -96l-135 8l-246 8l-262 -2zM356 1812q12 61 66 103q49 44 119 47q63 0 96 -45q40 -34 27 -105q-10 -59 -68 -106q-55 -43 -115 -43q-62 0 -102 43q-32 40 -23 106zM829 1812q12 64 66 103q52 44 119 47 q63 0 96 -45q39 -36 27 -105q-9 -56 -68 -106q-55 -43 -115 -43q-63 0 -100 43q-34 37 -25 106z" />
<glyph unicode="&#x402;" horiz-adv-x="1804" d="M162 1323l24 84l11 88l170 -6q225 -12 376 -12q240 0 461 12l172 6l-22 -88l-13 -84l-137 10l-196 8h-134l-108 -530q236 109 416 109q53 0 108 -11t114.5 -39t105.5 -70t76 -110.5t30 -154.5q0 -53 -12 -111q-26 -132 -115 -239.5t-206 -164.5t-234 -57q-68 0 -116 16 t-163 74q33 59 43 90q30 77 45 133h53q7 -56 19.5 -91t33.5 -53t44 -24t59 -6q70 0 126.5 77t84.5 224q10 55 10 101q0 119 -59 191.5t-168 72.5q-36 0 -73 -6t-85 -26.5t-87.5 -52.5t-73 -90t-48.5 -134l-10 -56l-39 -262l-20 -145l-168 4l-176 -4l34 145l66 283l82 418 l82 405l18 94h-88l-172 -8z" />
<glyph unicode="&#x403;" horiz-adv-x="1087" d="M0 -10q66 240 168 745q93 495 123 750q166 -10 420 -10q245 0 424 10q-16 -42 -25 -90q-6 -32 -10 -99q-208 27 -398 27q-42 0 -92 -4q-1 -6 -48.5 -240.5t-69.5 -347.5q-97 -507 -121 -741q-110 10 -187 10q-74 0 -184 -10zM635 1561q108 168 141 221q18 29 96 174 l140 -4l133 4l4 -43q-195 -140 -432 -352h-82z" />
<glyph unicode="&#x404;" horiz-adv-x="1441" d="M66 532q0 86 18 185q74 378 356 588q275 202 647 202q189 0 343 -59l73 -29l-49 -108l-55 -135h-21q-10 19 -55 84q-91 110 -268 110q-236 0 -416 -201q-107 -119 -166 -292l76 -11l366 -2l287 25l-28 -103l-11 -98l-272 21l-377 -7l-80 -8q-12 -46 -12 -119 q0 -75 16 -163q27 -146 129 -226q108 -77 256 -80q183 0 351 111l73 51l27 -14l-51 -102l-37 -89l-56 -24q-165 -67 -382 -70q-200 0 -365 70q-120 52 -207 156q-78 97 -98 204q-12 62 -12 133z" />
<glyph unicode="&#x405;" horiz-adv-x="1079" d="M-33 61q39 69 68 134q21 54 45 133h51q34 -225 238 -222q119 0 190 50q95 70 113 168q18 109 -90 186q-32 22 -131 82l-121 74q-143 90 -164 227q-4 32 -4 55q0 41 10 103q20 107 72 190q58 91 149 156q151 107 359 110q159 0 272 -65l47 -33l-57 -100q-4 -8 -20.5 -47 t-30.5 -68h-39q-25 104 -66 131q-57 45 -145 45q-95 0 -164 -49q-79 -55 -94 -143q-21 -113 73 -183q34 -26 152 -94q199 -115 240 -192q28 -40 38 -121q6 -69 -8 -135q-41 -215 -231 -359q-169 -125 -397 -125q-78 0 -154 15q-84 18 -127 41z" />
<glyph unicode="&#x406;" horiz-adv-x="718" d="M39 -4l29 108l49 220l86 424l69 374q32 155 45 269l11 92l174 -6l174 6l-23 -92q-14 -41 -61 -273l-78 -377l-82 -426q-34 -213 -35 -225l-10 -94l-170 4z" />
<glyph unicode="&#x407;" horiz-adv-x="829" d="M51 -4l25 106l51 222l86 424l72 374q38 217 43 269l10 92l176 -6l172 6l-24 -92q-27 -109 -60 -273l-76 -377l-84 -426q-18 -99 -34 -225l-9 -94l-172 4zM221 1810q11 59 64 105q55 44 118 47q64 0 97 -45q37 -35 28 -107q-9 -56 -69 -104q-52 -43 -115 -43 q-60 0 -100 43q-35 41 -23 104zM625 1810q16 66 63 105q55 44 119 47q62 0 98 -45q38 -41 27 -107q-9 -54 -68 -104q-52 -43 -114 -43q-60 0 -103 43q-34 37 -22 104z" />
<glyph unicode="&#x408;" horiz-adv-x="720" d="M-131 -248l41 4q95 14 158 152q21 50 61 209l55 291l60 292l63 359l51 274l19 152l164 -8l182 8l-39 -150q-35 -158 -57 -276l-68 -348q-34 -167 -47 -299q-8 -44 -20.5 -118t-16.5 -95q-49 -252 -211 -394q-150 -139 -309 -151l-66 4z" />
<glyph unicode="&#x409;" horiz-adv-x="2078" d="M-104 2q451 689 917 1483q31 -8 96 -8q22 -1 99 8q38 -284 108 -641l334 6q69 0 135.5 -9.5t133.5 -34.5t116.5 -62t81 -97.5t31.5 -136.5q0 -38 -9 -84q-32 -164 -145.5 -275t-273.5 -139q-102 -17 -181 -14l-274 12l-166 -10l-27 244l-102 579l-43 264 q-81 -125 -174 -281.5t-145 -248t-167.5 -299t-144.5 -258.5q-22 5 -104 10q-63 0 -96 -8zM1149 678l104 -537l23 -2q276 0 334 303q6 34 6 66q0 96 -63 150.5t-179 54.5q-122 0 -225 -35z" />
<glyph unicode="&#x40a;" horiz-adv-x="2306" d="M35 -4l31 137l69 303q6 27 29.5 145t40.5 199l41 221q48 244 61 347l17 135l174 -6l174 6l-37 -137l-37 -175l-41 -188l-16 -88l141 -10q86 -6 197 -6l321 2l19 102l47 244l18 119l19 137l176 -6l172 6v-2h2l-29 -111l-35 -151l-26 -107l-50 -235l129 4q89 0 171 -17.5 t157 -55t120.5 -107.5t45.5 -164q0 -47 -8 -86q-33 -166 -150.5 -290t-275.5 -151q-85 -14 -180 -14l-162 2v-2l-162 4l-184 -4h-2l35 145l59 260l61 314h-331q-109 0 -199 -4l-135 -13l-56 -297q-27 -126 -47 -270l-16 -135l-178 4zM1382 145l78 -10q133 0 220.5 86 t117.5 240q8 40 8 63q0 101 -64.5 160t-180.5 59q-24 0 -70 -8l-39 -186l-18 -98l-52 -304v-2z" />
<glyph unicode="&#x40b;" horiz-adv-x="1738" d="M160 1323l24 84l9 86l169 -6q250 -10 379 -10q211 0 461 10l168 6l-18 -86l-15 -84l-135 8l-196 8h-136l-94 -508q74 39 187.5 66t212.5 27q52 0 104 -12t104.5 -41t92.5 -72.5t65 -112.5t25 -154q0 -56 -8 -108l-62 -428l-182 6l-166 -6l27 102l38 183q29 155 29 245 q0 124 -44.5 185t-141.5 61q-34 0 -70.5 -6t-81 -23t-81.5 -44t-67 -74t-42 -107l-25 -123l-49 -256l-18 -143l-170 4l-174 -4l34 143l62 285l86 418l80 405l18 92h-86l-172 -8z" />
<glyph unicode="&#x40c;" horiz-adv-x="1359" d="M-12 -4l28 129l41 186l43 211l86 424l45 254l29 166l14 117l172 -6l175 6l-31 -119l-35 -166l-53 -246l-31 -145l156 143l172 170q153 147 233 242l107 121l137 -6l145 6l-147 -127l-197 -174l-250 -230l-94 -90l86 -194l164 -336l109 -219l67 -117l-209 4l-211 -4 l-45 115q-16 40 -90 206l-92 205l-66 144l-28 -144l-39 -205q-23 -105 -33 -190l-14 -131l-166 4zM756 1567q72 106 143 221q4 6 94 174l142 -4l131 4l6 -43q-205 -148 -434 -352h-82z" />
<glyph unicode="&#x40e;" horiz-adv-x="1427" d="M80 1485l203 -8l178 8l24 -115l228 -856l67 102l457 746l68 123l112 -8l113 8l-90 -125l-674 -1012l-287 -473l-119 10l-124 -8l235 318l-10 36l-348 1139zM535 1737q12 19 20 35.5t11 24t8.5 22t7.5 20.5l34 125h39q7 -50 21 -76t41 -51q57 -63 213 -63q68 0 142.5 17 t113.5 46q29 21 42.5 32t35.5 36t41 59h36l-16 -127l8 -100l-78 -33q-220 -45 -348 -45q-107 0 -173.5 8t-119.5 33z" />
<glyph unicode="&#x40f;" horiz-adv-x="1681" d="M57 -4l35 135q14 54 76 346l43 221l61 332l54 301l20 152l164 -4l182 4l-33 -144l-57 -260l-39 -192l-22 -107l-56 -284l-34 -189l-23 -129l123 -18h420l121 24l26 123l39 189l60 286l55 295l47 271l14 135l180 -4l168 4l-28 -137l-78 -316l-102 -553l-66 -325l-10 -156 l-178 6l-172 -6h-123q-84 0 -129.5 -74.5t-57.5 -243.5h-123q33 112 33 187q0 131 -117 131h-124l-181 6z" />
<glyph unicode="&#x410;" horiz-adv-x="1441" d="M-131 -4l108 156q286 437 566 909l159 276l80 146l74 -6l98 6l23 -146l49 -272q92 -515 205 -909l45 -160l-205 4l-182 -4l-15 145l-30 187l-15 94l-110 12q-70 4 -146 4q-106 0 -141 -4l-115 -12l-51 -92q-33 -57 -96 -185l-74 -149l-108 4zM418 592l71 -8q59 -6 127 -6 q76 0 111 4l72 10l-21 84l-53 264l-27 123l-75 -123l-156 -264z" />
<glyph unicode="&#x411;" horiz-adv-x="1320" d="M23 -4l32 106q2 16 15.5 76t21.5 107l58 280l126 652l27 153l10 111l148 -8l284 -9l342 2l152 15l-25 -84l-8 -86l-149 8q-34 2 -340 8h-103l-12 -92l-27 -123l-53 -266l119 2q70 0 136.5 -9.5t134 -34.5t117 -62t81 -97.5t31.5 -136.5q0 -43 -8 -84 q-32 -163 -145.5 -274.5t-274.5 -139.5q-85 -14 -183 -14l-165 2l-146 2h-100zM391 145l78 -8q274 0 332 303q8 31 8 66q0 97 -64 151.5t-180 53.5l-73 -6l-21 -107l-31 -147l-30 -168z" />
<glyph unicode="&#x412;" horiz-adv-x="1320" d="M23 -4l32 106q2 16 15.5 76t21.5 107l55 278l66 328l63 326l25 159l12 107l72 -4l147 -2l150 2l209 4q189 -3 272 -74q86 -71 86 -195q0 -41 -4 -61q-20 -107 -110 -203q-88 -81 -199 -121l-74 -18l70 -27q66 -22 123 -75q55 -49 78 -134q8 -46 8 -71q0 -22 -8 -80 q-46 -228 -236 -342q-83 -50 -186 -72q-85 -14 -181 -14l-168 2l-143 2h-100zM391 145l78 -10q270 0 332 305q10 52 10 84q-6 115 -127 168q-57 16 -121 19l-71 -6l-23 -107l-29 -147l-30 -168zM522 846l82 2q86 3 154 45q110 63 145 219q6 30 6 62q0 165 -209 165l-77 -6 l-21 -98l-31 -123l-22 -133z" />
<glyph unicode="&#x413;" horiz-adv-x="1087" d="M45 -10q66 240 168 745q93 495 123 750q166 -10 420 -10q245 0 426 10q-20 -52 -27 -90q-6 -32 -10 -99q-209 27 -393 27q-47 0 -97 -4q-62 -315 -118 -588q-92 -483 -121 -741q-110 10 -187 10q-74 0 -184 -10z" />
<glyph unicode="&#x414;" horiz-adv-x="1626" d="M-115 -332l43 412l2 94l185 -22l186 299q148 238 320 540l198 355l78 137l88 -4l113 4l22 -142l60 -346l102 -542q12 -60 35 -167t29 -134l192 22l-37 -94l-117 -412h-120q43 158 43 226q0 52 -20 77t-68 25h-150q-24 0 -87 1t-103 1l2 -2q-25 2 -115 2h-246l-340 -2 q-35 0 -62 -16t-44 -41t-30 -71t-21 -88.5t-17 -111.5h-121zM309 141h8q150 -6 263 -6h290h117q-30 301 -119 760l-34 182l-107 -182q-292 -498 -418 -754z" />
<glyph unicode="&#x415;" horiz-adv-x="1081" d="M18 -16l29 108q12 44 49 207l54 272l73 394l45 231l31 186l12 111l181 -12q86 -4 208 -4q222 0 314 6l125 10l-23 -94l-12 -101l-129 9l-252 8l-115 2l-26 -129l-45 -234l-21 -108l129 -2q133 0 234 8l125 8l-27 -98l-10 -96l-127 10q-24 1 -103 4t-129 4l-123 -2 l-24 -117l-51 -270l-27 -133l119 -2q118 0 233 8l150 10l-25 -98l-14 -96l-137 8l-244 8l-262 -2z" />
<glyph unicode="&#x416;" horiz-adv-x="2023" d="M-113 -4l113 117l193 221l296 334l162 194l-258 326l-129 174l-114 121l145 -6l137 6l70 -127l391 -531l25 129l40 244l31 166l15 119l161 -6l168 6l-33 -119l-34 -166l-54 -244l-24 -129l594 531l121 127l135 -6l149 6l-164 -121l-198 -174l-383 -326l90 -194l162 -334 l110 -221l64 -117l-205 4l-213 -4l-47 115q-16 53 -88 206l-90 205l-64 164l-74 -369q-21 -126 -28 -190l-17 -131l-163 4l-164 -4l37 131q26 101 43 190l41 205l28 164l-125 -164l-172 -205q-118 -140 -170 -206l-90 -115l-209 4z" />
<glyph unicode="&#x417;" horiz-adv-x="1224" d="M-59 49l63 123l49 145h51q16 -95 85.5 -159t185.5 -64q119 0 219.5 82t126.5 211q8 41 8 84q0 119 -73 180.5t-193 61.5q-42 0 -109 -13l27 152q51 -14 98 -14q143 0 232.5 62.5t117.5 207.5q9 44 9 82q0 93 -49.5 141.5t-133.5 48.5q-206 0 -307 -178h-39q2 32 -2 67.5 t-13 85t-11 64.5q107 47 203.5 72t215.5 25q227 0 350.5 -91t123.5 -233q0 -26 -7 -66q-18 -89 -81.5 -163t-147 -117t-172.5 -55l-4 -19q40 -7 76.5 -18t79 -34t72.5 -53.5t50.5 -79t20.5 -108.5q0 -41 -8 -82q-22 -112 -90 -198.5t-166 -137.5t-210.5 -76.5t-234.5 -25.5 q-108 0 -225 20.5t-188 69.5z" />
<glyph unicode="&#x418;" horiz-adv-x="1681" d="M35 -4l164 737q94 482 123 750l178 -6l172 6q-73 -268 -162 -748q-37 -190 -55 -289q589 526 1046 1031l164 6h16q-50 -171 -145 -660q-5 -24 -31 -156.5t-36 -187t-29 -158.5t-29.5 -181t-17.5 -144q-37 4 -97 4h-65h-74q-72 0 -113 -4q33 114 65 257.5t46 217.5t49 262 q38 202 49 289q-463 -436 -1032 -1026h-186z" />
<glyph unicode="&#x419;" horiz-adv-x="1681" d="M-10 -4l164 737q99 528 120 750l181 -6l170 6q-62 -225 -162 -748q-23 -115 -55 -289q585 522 1048 1031l162 6h16q-56 -204 -145 -660q-2 -11 -22 -112t-25 -129t-22 -116t-24 -131.5t-18.5 -113t-18 -123t-11.5 -102.5q-39 4 -99 4h-65h-74q-72 0 -111 -4q20 71 38 142 t35.5 156.5t28 136t31 157.5t27.5 145q38 202 49 289q-438 -410 -1032 -1026h-186zM666 1735q19 35 45 102l34 125h39q10 -50 24 -75.5t40 -51.5q28 -31 85.5 -47t125.5 -16q69 0 144 17t114 46q3 2 15.5 11.5t16 12.5t14 11.5t15 13.5t13.5 14.5t15 18t13.5 20.5t14.5 25 h36l-12 -127l6 -100l-80 -31q-202 -47 -346 -47q-200 0 -293 43z" />
<glyph unicode="&#x41a;" horiz-adv-x="1359" d="M33 -4l30 129l41 186l46 211l83 424l43 254l29 166l17 117l170 -6l176 6l-33 -119l-35 -166l-53 -244l-29 -147l156 143l170 170q138 133 237 242l105 121l135 -6l149 6l-151 -127l-195 -174l-252 -228l-94 -92l88 -194l162 -334l111 -221l65 -117l-207 4l-213 -4 l-45 115q-29 81 -90 206l-90 205l-67 144l-27 -144l-41 -205q-23 -120 -31 -190l-16 -131l-164 4z" />
<glyph unicode="&#x41b;" horiz-adv-x="1466" d="M-111 -10q73 119 223.5 362.5t240 389t213 355t222.5 388.5q42 -10 93 -10q43 0 98 10q92 -541 295 -1495q-102 10 -191 10q-114 0 -192 -10q-17 161 -47 340.5t-71.5 402.5t-61.5 342q-142 -236 -222.5 -372.5t-195.5 -340t-203 -372.5q-58 10 -100 10q-56 0 -101 -10z " />
<glyph unicode="&#x41c;" horiz-adv-x="1921" d="M-68 -4l56 137l139 395l90 263l160 495l59 197l90 -6l84 6l54 -221l86 -318l104 -338l49 -149l107 143l239 342q146 208 262 387l93 154l84 -6l88 6l-17 -150l-39 -547l-28 -600l-4 -190l-168 4l-193 -4l19 133l45 373l20 297l19 176l-123 -182l-183 -258l-254 -377 l-98 -162l-43 4l-45 -4l-22 100l-52 195l-149 510l-51 168l-56 -174l-90 -299l-102 -369l-31 -131l-100 4z" />
<glyph unicode="&#x41d;" horiz-adv-x="1683" d="M35 -4l31 137l69 303q49 237 72 344l41 221q42 215 59 347l19 135l172 -6l176 6l-37 -137l-37 -175l-41 -188l-18 -88l141 -10q86 -6 197 -6q107 0 190 6l135 10l17 88l36 188l27 175l19 137l176 -6l172 6l-35 -135q-13 -50 -76 -347l-43 -221l-63 -329l-52 -304 l-22 -151l-162 4l-186 -4l35 145l57 258l41 193l20 106l-139 9l-190 8q-111 0 -197 -4l-137 -13l-21 -112l-35 -185q-30 -138 -45 -270l-18 -135l-176 4z" />
<glyph unicode="&#x41e;" horiz-adv-x="1800" d="M70 545q0 78 16 172q70 358 350 579q263 208 633 211q344 0 520 -182q91 -94 125 -213q21 -96 21 -174q0 -79 -19 -176q-67 -356 -348 -578q-268 -212 -627 -215q-353 0 -536 195q-135 156 -135 381zM414 496q0 -111 37 -193q45 -92 122 -141q86 -59 199 -56 q236 0 408 218q131 178 186 434q23 134 23 200q0 118 -35 211q-29 85 -107 144q-83 57 -215 57q-237 0 -414 -219q-129 -170 -180 -440q-24 -141 -24 -215z" />
<glyph unicode="&#x41f;" horiz-adv-x="1652" d="M-16 -4l28 137l70 303q10 43 33 157.5t39 186.5l41 221q31 157 61 347l16 135l172 -6l177 6h682l176 -6l170 6l-33 -135q-29 -109 -76 -347l-43 -221l-63 -329l-52 -304l-22 -151l-162 4l-186 -4l35 145l55 258l41 193l22 106l39 197l15 88l36 188l25 129l-125 19h-461 l-121 -25l-26 -123l-41 -188l-14 -80l-3 -2l-40 -205l-56 -295q-34 -175 -45 -270l-16 -135l-178 4z" />
<glyph unicode="&#x420;" horiz-adv-x="1241" d="M35 -4l22 92l41 174l60 277l65 342l49 264q29 151 41 254l13 84l168 -6l186 2l184 4q250 -3 336 -111q31 -35 51 -102q6 -37 6 -74q0 -50 -12 -106q-86 -451 -653 -451l-100 2l-19 -104l-49 -254l-41 -287l-164 4zM520 780l37 -4q277 3 342 318q6 43 6 75q0 167 -188 170 l-74 -4l-33 -118l-39 -164l-36 -181z" />
<glyph unicode="&#x421;" horiz-adv-x="1441" d="M66 532q0 86 18 185q74 378 356 588q275 202 647 202q189 0 343 -59l73 -29l-49 -108l-55 -135h-21q-10 19 -55 84q-91 110 -268 110q-236 0 -416 -201q-149 -173 -197 -424q-18 -91 -18 -184q0 -80 14 -149q27 -146 129 -226q108 -77 256 -80q183 0 351 111l73 51 l27 -14l-51 -102l-37 -89l-56 -24q-165 -67 -382 -70q-200 0 -365 70q-120 52 -207 156q-78 97 -98 204q-12 62 -12 133z" />
<glyph unicode="&#x422;" d="M160 1323l24 84l9 86l172 -6q245 -10 376 -10q133 0 383 10l170 6l-20 -86l-12 -84l-138 8l-166 8h-86l-20 -92l-78 -405l-78 -418l-47 -285l-22 -143l-172 4l-176 -4l34 143l64 285l84 418l80 405l20 92h-88l-172 -8z" />
<glyph unicode="&#x423;" horiz-adv-x="1470" d="M176 1483l205 -6l176 6l27 -115l227 -856l66 102l456 748l68 121l115 -6l110 6l-90 -123l-674 -1014l-284 -473l-119 12l-125 -10l233 320l-8 34l-348 1139z" />
<glyph unicode="&#x424;" horiz-adv-x="1949" d="M98 643q0 40 15 121q49 259 258.5 411t552.5 152l10 62l12 104q92 -10 172 -10q94 0 172 10l-26 -98l-15 -68q136 0 242 -23t174.5 -62t112.5 -95.5t62 -118t18 -133.5q0 -67 -15 -131q-23 -123 -96.5 -232.5t-180.5 -190.5t-248 -128t-294 -47q-31 -160 -35 -213 q-64 10 -166 10q-93 0 -178 -10q9 22 28 97.5t27 115.5q-172 0 -307 54t-215 163.5t-80 259.5zM446 631q0 -153 71.5 -251.5t203.5 -98.5l184 946q-80 0 -155.5 -39t-132.5 -104t-98 -148t-58 -172q-15 -68 -15 -133zM1047 281q82 0 158 40.5t133 108.5t98 154.5t59 179.5 q14 57 14 121q0 147 -72 243.5t-206 96.5z" />
<glyph unicode="&#x425;" horiz-adv-x="1320" d="M-96 -4l86 92l188 217l205 242l119 145l-45 127l-138 375l-71 190l-41 99l207 -6l198 6l21 -88l49 -178l51 -156l31 -90l82 92q49 59 115 145l141 187l63 88l121 -6l127 6l-80 -88l-170 -191l-209 -233l-127 -146l39 -120l92 -254l129 -365l39 -90l-208 4l-193 -4l-20 82 q-46 161 -62 225l-47 139l-31 105l-90 -105l-115 -145q-91 -117 -155 -211l-62 -90l-112 4z" />
<glyph unicode="&#x426;" horiz-adv-x="1716" d="M53 -4l35 137q30 128 76 344l43 221l63 332l52 301l22 152l162 -4l184 4l-33 -144l-59 -260l-39 -192l-24 -107l-35 -196l-17 -88l-37 -189l-22 -129l125 -18h420l121 24l24 123l41 189l16 79l3 3l40 204l54 295q34 173 43 271l20 135l178 -4l170 4l-30 -137l-70 -304 q-6 -27 -29.5 -145t-40.5 -199l-43 -221l-63 -325h39l192 22l-37 -94l-116 -412h-121q43 172 43 226q0 102 -88 102l26 2l-127 4l-172 -6h-641l-180 6z" />
<glyph unicode="&#x427;" horiz-adv-x="1585" d="M262 961q0 45 6 94l64 428l180 -6l168 6l-27 -105l-41 -180q-20 -123 -20 -197q0 -294 219 -294q34 0 52.5 0.5t55.5 6.5t60.5 17.5t56 35t55 57t44 85.5t34.5 119l52 305l18 150l152 -4h102l94 4l-33 -107q-2 -15 -9.5 -50t-30.5 -147.5t-54 -267.5l-104 -516l-47 -266 l-11 -133l-163 4l-187 -4l31 133l59 266l54 252q-75 -39 -189 -65.5t-213 -26.5q-53 0 -108.5 12t-113.5 42.5t-103 75t-74 116t-29 160.5z" />
<glyph unicode="&#x428;" horiz-adv-x="2396" d="M31 -4l35 135q9 35 75 346l43 221l64 330l51 303l23 152l161 -4l187 4l-35 -146l-57 -258l-41 -192l-21 -107l-39 -196l-16 -88l-37 -189l-23 -129l125 -18l351 -2l53 14l35 152l86 424l69 374q29 129 45 269l13 92l172 -6l176 6l-25 -92q-18 -59 -61 -273l-78 -377 l-82 -426q-4 -28 -12 -72.5t-11 -68.5l46 -14h339l121 24l25 123l41 189l16 79l2 3l41 204l54 295q30 137 45 271l18 135l176 -4l172 4l-31 -137l-69 -304q-49 -237 -72 -344l-41 -221q-48 -262 -59 -346l-19 -135l-172 6l-176 -6h-479l-168 4l-688 -4l-176 6z" />
<glyph unicode="&#x429;" horiz-adv-x="2469" d="M35 -4l35 137q10 38 75 344l43 221l64 332l51 301l21 152l163 -4l185 4l-35 -144l-57 -260l-39 -192l-23 -107l-37 -196l-16 -88l-37 -189l-22 -129l122 -18l351 -2l55 16l33 150l86 424l71 374q34 167 43 269l13 92l174 -6l174 6l-25 -92q-17 -68 -59 -273l-78 -377 l-84 -426q-3 -25 -10 -70t-10 -69l43 -16h340l122 24l25 123l41 189l16 79l2 3l39 204l56 295q28 145 43 271l18 135l180 -4l168 4l-28 -137l-70 -304q-6 -27 -29.5 -145t-40.5 -199l-43 -221q-45 -240 -55 -321h39l192 22l-34 -94l-117 -412h-121q3 11 11 44.5t11.5 49.5 t9 42t7.5 46t2 37q0 60 -29 93q-18 16 -78 16h-40q-34 0 -50 2l-172 -6h-481l-170 4l-686 -4l-178 6z" />
<glyph unicode="&#x42a;" horiz-adv-x="1566" d="M178 1311l23 92l10 78l125 -8q93 -7 239 -7l138 7l200 8l-28 -111l-33 -151l-25 -107l-45 -227h119q57 0 114 -7.5t114 -23.5t106 -43.5t87 -63.5t59.5 -87.5t21.5 -112.5q0 -20 -8 -74q-21 -104 -63 -186.5t-98.5 -137t-129 -89.5t-151.5 -50t-169 -14l-166 2l-145 2 h-102l-95 -4l33 106q3 20 16 81.5t21 101.5l55 280l127 652l21 108l-248 -8zM643 145l78 -8q132 0 221.5 90.5t116.5 235.5q6 38 6 67q0 99 -62.5 157.5t-175.5 57.5l-73 -6l-31 -141l-31 -147l-28 -168z" />
<glyph unicode="&#x42b;" horiz-adv-x="2000" d="M23 -4l32 106q2 16 15.5 76t21.5 107l55 280l129 652l25 153l12 111l146 -8l203 8l-29 -111l-35 -151l-25 -107l-45 -227h119q57 0 114 -7.5t114 -23.5t106 -43.5t87 -63.5t59.5 -87.5t21.5 -112.5q0 -20 -8 -74q-26 -130 -83.5 -225t-139.5 -149.5t-178 -79.5t-210 -23 l-165 2l-146 2h-100zM391 145l78 -8q131 0 220 90.5t116 235.5q6 38 6 67q0 99 -62.5 157.5t-175.5 57.5l-73 -6l-29 -141l-31 -147l-30 -168zM1321 -4l27 108l51 220l86 424l71 374q38 217 43 269l11 92l172 -6l176 6l-25 -92q-21 -70 -59 -273l-78 -377l-82 -426 q-21 -117 -35 -225l-12 -94l-168 4z" />
<glyph unicode="&#x42c;" horiz-adv-x="1314" d="M25 -4l30 106q35 169 37 183l58 280l126 652l27 153l10 111l148 -8l201 8l-29 -111l-35 -151l-23 -107l-45 -227h119q69 0 136.5 -10.5t134.5 -36t117.5 -63t82 -96.5t31.5 -132q0 -7 -10 -74q-20 -104 -61.5 -186.5t-98 -137t-129 -89.5t-151.5 -50t-169 -14l-167 2 l-144 2h-102zM391 145l78 -8q132 0 221.5 90.5t116.5 235.5q6 38 6 67q0 99 -62.5 157.5t-175.5 57.5l-73 -6l-31 -141l-31 -147l-30 -168z" />
<glyph unicode="&#x42d;" horiz-adv-x="1441" d="M-29 61l70 244l35 2q48 -75 85.5 -113.5t95 -59.5t144.5 -21q122 0 227 47.5t179.5 129t124.5 184.5t72 220l-74 8l-377 7l-277 -21l23 98l16 103l273 -25l370 2l80 11q11 74 11 81q0 107 -49.5 200.5t-144 152.5t-212.5 59q-57 0 -127 -14.5t-148.5 -57t-109.5 -104.5 h-39q3 90 -24 215q112 48 246.5 73t248.5 25q210 0 363.5 -64.5t240 -195.5t86.5 -317q0 -81 -18 -180q-45 -224 -183 -402t-343 -278.5t-439 -100.5q-83 0 -133 3t-135.5 24.5t-157.5 64.5z" />
<glyph unicode="&#x42e;" horiz-adv-x="2418" d="M39 -4l29 108l49 220l86 424l71 374q34 167 43 269l13 92l172 -6l176 6l-25 -92q-18 -59 -61 -273l-62 -299l31 -10h152l14 8q82 281 328 479q263 208 635 211q342 0 518 -182q96 -96 125 -213q22 -86 22 -174q0 -89 -20 -176q-67 -356 -348 -578q-265 -212 -627 -215 q-351 0 -537 195q-137 155 -137 375q0 45 6 94l-10 12h-152l-34 -12l-64 -318q-8 -48 -19.5 -122.5t-15.5 -102.5l-10 -94l-168 4zM1034 496q0 -118 37 -193q41 -90 121 -141q86 -59 199 -56q237 0 409 218q130 176 185 434q22 110 22 200q0 126 -35 211q-30 89 -106 144 q-80 57 -213 57q-239 0 -416 -219q-129 -170 -180 -440q-23 -135 -23 -215z" />
<glyph unicode="&#x42f;" horiz-adv-x="1331" d="M-80 0l111 121l456 557q-110 37 -180.5 113t-70.5 188q0 33 6 70q17 93 62.5 170.5t120 139t187 96t252.5 34.5q54 -1 160.5 -4t161.5 -4l166 6l-25 -88q-18 -62 -53 -230l-105 -548l-51 -254q-8 -52 -16.5 -101.5t-16.5 -90t-10 -54.5l-12 -121l-166 4l-180 -4l33 119 q34 144 53 246l63 313h-53l-410 -549l-88 -129l-184 4zM545 1018q0 -103 65.5 -166.5t206.5 -63.5q33 0 74 9l14 75l72 375l18 103l-75 6q-133 0 -238 -68t-129 -192q-8 -54 -8 -78z" />
<glyph unicode="&#x430;" horiz-adv-x="1081" d="M-4 221q0 66 19.5 118t51 88.5t83.5 66t105.5 49t129.5 39.5l133 32q3 1 24.5 5.5t28.5 6t26.5 7.5t28 11t23 14.5t22 20t15 25.5t10.5 33q18 87 -32.5 130.5t-155.5 43.5q-57 0 -126.5 -30t-115.5 -86h-37l7 61l-3 64q184 133 412 133q342 0 342 -242q0 -33 -16 -118.5 t-41 -206.5t-35 -177q-3 -18 -10 -54t-10 -58.5t-3 -40.5q0 -66 54 -82l37 -2l-11 -49q-149 -46 -204 -50q-141 -3 -158 146q-141 -150 -322 -150q-121 0 -196.5 69.5t-75.5 182.5zM311 244q0 -56 24 -94.5t75 -38.5q42 0 77 19.5t58 48t41.5 71.5t29 79.5t19.5 82.5l29 149 l-127 -35q-226 -67 -226 -282z" />
<glyph unicode="&#x431;" d="M39 332q0 74 49 321q42 216 160 407.5t229 280.5q233 188 426 185q4 0 27 -1t30.5 -0.5t29 0.5t31.5 2.5t28.5 5.5t30.5 9.5t27.5 14.5t28.5 20t25 27l53 -27q-22 -51 -35.5 -79t-39 -68.5t-52.5 -67.5q-49 -46 -123.5 -66t-178.5 -30t-156 -23q-105 -26 -176.5 -118.5 t-85.5 -215.5h28q107 75 188 109.5t175 34.5q164 0 250 -97.5t86 -267.5q0 -196 -82 -360t-233 -261.5t-341 -97.5q-196 0 -297.5 93t-101.5 270zM311 272q0 -196 148 -196q63 0 117.5 42.5t91.5 109.5t64 150.5t39.5 166t12.5 155.5q0 209 -155 209q-68 0 -124 -47.5 t-91 -119t-59 -160.5t-34 -167t-10 -143z" />
<glyph unicode="&#x432;" horiz-adv-x="1093" d="M20 -4q64 253 115 516q33 177 84 541q127 -15 164 -15q58 0 110.5 7.5t163.5 7.5q193 0 298.5 -50.5t105.5 -156.5q0 -33 -4 -51q-19 -103 -106.5 -165.5t-211.5 -76.5q123 -16 191.5 -72t68.5 -153q0 -31 -6 -58q-20 -102 -94 -170t-182 -97.5t-250 -29.5 q-71 0 -166 13.5t-143 13.5t-138 -4zM342 100q31 -14 50.5 -17t70.5 -3q88 0 145.5 51.5t77.5 149.5q8 54 8 71q0 146 -155 146q-76 0 -129 -13q-17 -78 -52 -258zM432 598q53 -8 131 -8q83 0 124 48.5t58 137.5q5 35 5 45q0 63 -33.5 101.5t-95.5 38.5q-35 0 -52.5 -4.5 t-64.5 -22.5q-10 -36 -22 -90.5t-27 -130.5t-23 -115z" />
<glyph unicode="&#x433;" horiz-adv-x="780" d="M-68 -6l27 96l41 189l47 225l41 217l31 192l6 125l166 -10h227q144 0 320 19l-19 -70l-10 -78l-264 12l-129 2q-31 -133 -43 -188l-47 -221l-39 -225l-31 -189l-10 -96l-158 6z" />
<glyph unicode="&#x434;" horiz-adv-x="1329" d="M-76 -350l70 481l78 -16l67 -4l23 22l338 545l125 227l67 125l111 -4l149 4l19 -121l37 -262l41 -268l53 -268l69 4l82 16l-125 -481h-110q49 145 49 231q0 115 -94 115h-756q-163 0 -182 -346h-111zM317 111h463l-37 299l-30 213l-25 133l-74 -129l-139 -246l-147 -248z " />
<glyph unicode="&#x435;" horiz-adv-x="1079" d="M59 373q0 60 17 143q23 131 90 250q45 78 137 160q160 127 373 127q214 0 311 -127q70 -95 70 -224q0 -46 -10 -114l-25 -105l-61 6l-115 7l-111 6h-356l-6 -70q-2 -16 -2 -49q0 -106 47 -174q68 -92 203 -92q104 0 215 47l69 31l23 -19l-43 -63l-45 -66l-64 -29 q-35 -13 -102 -28q-82 -21 -170 -21q-379 0 -434 297q-11 64 -11 107zM406 616h335l11 58q10 72 10 117q0 160 -115 163q-113 0 -184 -149q-29 -63 -43 -123z" />
<glyph unicode="&#x436;" horiz-adv-x="1619" d="M-96 -4l71 80l175 209l202 241l90 109l-106 131l-143 178l-74 84l129 -6l123 6l35 -76q57 -116 92 -164l98 -131q56 -76 80 -82l18 3l31 153l33 199l12 106l154 -6l133 4l-31 -102q-3 -13 -12.5 -48t-18.5 -73.5t-16 -77.5l-31 -155l19 -3q29 6 114 82l146 131 q68 59 157 164l66 76l119 -6l131 6l-109 -84l-207 -178l-157 -131l45 -109l108 -241l93 -209l40 -80l-170 4l-188 -4l-22 82l-86 207q-58 148 -86 176l-31 18l-15 -76l-30 -165l-23 -156l-14 -86l-107 6l-174 -4l25 88l39 158l33 172l14 63l-39 -18q-34 -25 -156 -176 l-161 -207l-60 -82l-184 4z" />
<glyph unicode="&#x437;" horiz-adv-x="1001" d="M-8 66l35 88l28 90h43l29 -56q55 -108 203 -108q92 0 165 53.5t91 147.5q6 30 6 57q0 74 -50 111.5t-139 37.5q-40 0 -116 -12l20 68l6 67q55 -14 115 -14q86 0 139.5 52t69.5 136q14 76 -30 116t-124 40q-68 0 -121.5 -25t-107.5 -98h-41q14 62 23 150q107 50 173.5 68 t139.5 18q183 0 292 -56.5t109 -167.5q0 -11 -4 -43q-20 -105 -101 -165t-206 -72q262 -38 262 -209q0 -24 -6 -59q-19 -101 -103.5 -173t-203.5 -105.5t-260 -33.5q-202 0 -336 97z" />
<glyph unicode="&#x438;" horiz-adv-x="1255" d="M37 -2l22 84q10 33 43 162l41 213l43 223l23 158q18 86 20 116l9 76l149 -4l164 4l-25 -80q-2 -10 -23 -97t-26 -110l-67 -346l424 396l210 235l84 -4l86 4l-40 -156l-39 -178l-48 -237l-40 -213q-19 -87 -27 -166l-4 -82l-160 6l-154 -6l25 84q7 24 20 78.5t21 83.5 l41 209l35 180l-412 -387l-239 -246l-78 4z" />
<glyph unicode="&#x439;" horiz-adv-x="1255" d="M-8 -2l24 84q19 62 39 162l45 213l43 223l23 160q3 22 10 62t8 54l9 76l151 -6l162 6l-23 -82q-19 -64 -51 -207l-67 -346l426 396l210 235l84 -4l86 4l-41 -156l-38 -178l-48 -237l-43 -213q-21 -109 -24 -166l-6 -82l-158 6l-156 -6l27 84q6 23 19 77.5t20 84.5l41 211 l35 178l-412 -387l-240 -246l-75 4zM424 1276q23 62 47 119l29 88h32q6 -44 17.5 -68t34.5 -47q43 -51 180 -51q61 0 122.5 13.5t94.5 39.5q2 2 12.5 10.5t13.5 11t12 10.5t13.5 12.5t12.5 13t13.5 16t12.5 18t14 21.5h29l-12 -86v-72v-47l-64 -25q-180 -39 -293 -39 q-157 0 -266 37z" />
<glyph unicode="&#x43a;" horiz-adv-x="1081" d="M0 -4l25 88l38 158l35 172l60 315l32 199l13 106l153 -6l160 6l-27 -102q-31 -111 -49 -199l-28 -155l16 -3q27 5 115 82l147 131q74 67 156 164l65 76l121 -6l129 6l-106 -84l-209 -176l-158 -133l45 -109l109 -241l94 -209l39 -80l-170 4l-189 -4l-24 82l-84 207 q-53 138 -86 176l-31 18l-14 -76l-31 -165l-24 -156l-13 -86l-133 4z" />
<glyph unicode="&#x43b;" horiz-adv-x="1079" d="M-59 -4l104 166l131 221l178 305l121 223l62 117l122 -4l113 4l19 -121l36 -262l41 -248l39 -211l43 -190l-184 4l-162 -4l-12 129l-29 272l-28 221l-17 109l-59 -100l-123 -219l-154 -293l-53 -119l-98 4z" />
<glyph unicode="&#x43c;" horiz-adv-x="1615" d="M10 -4l43 94l293 784l49 154l125 -6l90 6l15 -92l34 -156l78 -278l33 -117l18 -72l95 154l235 360l133 201l125 -8l90 8l-12 -102l-6 -154l-8 -258v-424l8 -94l-158 4l-155 -4l12 113l12 270l4 186l2 99l-86 -117l-270 -445l-55 -106l-78 6l-119 -6l-6 18l-59 244 l-101 412l-176 -564l-33 -110l-88 4z" />
<glyph unicode="&#x43d;" horiz-adv-x="1214" d="M14 -4l25 94l41 189l49 225l41 217l33 201l10 106l156 -6l157 6l-28 -102q-5 -23 -20.5 -91.5t-24.5 -107.5l-25 -113l104 -12h164l129 10l17 109l32 201l11 106l155 -6l158 6l-27 -102q-10 -34 -47 -199l-45 -223l-39 -225l-32 -189l-9 -94l-157 4l-156 -4l27 94l41 189 l43 196l-121 8h-170l-103 -8l-34 -196l-33 -189l-8 -94l-158 4z" />
<glyph unicode="&#x43e;" d="M53 354q0 71 10 127q17 87 60 187q79 181 244 284q154 101 352 101q238 0 356 -142q80 -96 80 -249q0 -62 -12 -132q-84 -422 -465 -534q-92 -27 -189 -27q-237 0 -354 135q-82 91 -82 250zM356 291q0 -223 158 -223q223 0 317 469q23 128 23 202q0 212 -147 215 q-241 -3 -330 -458q-21 -117 -21 -205z" />
<glyph unicode="&#x43f;" horiz-adv-x="1216" d="M18 -4l31 102l43 197l39 190l47 256l27 174l10 113l158 -12l147 -4h379l182 6l121 10l-26 -104l-46 -183l-55 -284l-37 -189q-27 -156 -28 -184l-6 -88l-160 4l-154 -4l25 100l47 189l37 180l28 166l37 266h-354l-68 -270l-39 -176l-32 -162q-24 -118 -33 -201l-6 -92 l-150 4z" />
<glyph unicode="&#x440;" d="M-55 -449l22 74q16 60 41 166l39 201l117 604l35 195l24 163l10 76l156 -6l154 6l-29 -69l-18 -70l36 41q51 54 121 84q84 37 181 37q211 0 299 -172q43 -82 43 -209q0 -80 -17 -164q-43 -230 -172 -371q-151 -168 -366 -168q-68 0 -132 23q-64 16 -106 71l-39 48 l-20 -125l-35 -187l-27 -176l-8 -72l-145 7zM408 334q0 -42 6 -76q21 -145 149 -145q167 0 246 241q15 47 43 158q11 59 14 113q2 20 2 59q0 227 -151 227q-115 0 -199 -143q-34 -58 -67 -158q-4 -16 -23 -106l-16 -103q-4 -50 -4 -67z" />
<glyph unicode="&#x441;" horiz-adv-x="1081" d="M57 373q0 55 13 125q20 111 80 219t149 180q84 72 203 113q119 43 248 43q175 0 294 -72l46 -35l-52 -84l-59 -108h-49q-4 59 -8 71q-6 41 -37 68q-21 27 -64 41q-35 12 -80 12q-145 0 -252 -143q-83 -116 -110 -273q-14 -74 -14 -141q0 -89 28 -153q66 -138 234 -138 q96 0 190 54l60 38l32 -16l-37 -57l-30 -58l-60 -30q-117 -60 -256 -60q-251 0 -372 142q-97 111 -97 262z" />
<glyph unicode="&#x442;" horiz-adv-x="1005" d="M94 883l21 78l8 67q170 -16 223 -16h479q72 0 250 16l-18 -67l-10 -78l-195 12l-127 2q-17 -62 -41 -170l-47 -223l-39 -225l-31 -189l-10 -94l-158 4l-155 -4l26 94l41 189l47 225l41 217l29 176l-133 -2z" />
<glyph unicode="&#x443;" horiz-adv-x="1081" d="M102 -444l97 120q64 92 133 199l84 125l-47 199l-76 350l-78 350l-29 131l174 -6l164 6l15 -127l34 -215l41 -229l21 -97l57 95l131 225q92 165 121 223l60 125l81 -6l101 6l-76 -127l-217 -348l-217 -356l-189 -318l-125 -209l-61 -116l-96 4z" />
<glyph unicode="&#x444;" horiz-adv-x="1904" d="M49 346q0 72 19 162q46 228 170 373q156 172 366 172q94 0 164 -37q74 -38 119 -107l4 62l59 368l31 187l16 80l154 -7l160 7l-23 -82l-43 -191l-86 -372l-14 -50q82 71 158 105q87 37 180 37q214 0 299 -172q43 -82 43 -211q0 -78 -17 -162q-43 -230 -172 -371 q-151 -168 -366 -168q-67 0 -131 23q-35 9 -75 39t-73 71l-18 -110l-37 -199q0 -2 -25 -172l-8 -70l-158 7l-145 -7l18 70l44 178l38 187l25 116q-44 -39 -97.5 -70t-92.5 -40q-71 -23 -140 -23q-217 0 -303 168q-43 91 -43 209zM354 322q0 -209 154 -209q64 0 129.5 39 t110.5 102l65 256l33 250q-13 67 -66.5 109t-113.5 42q-95 0 -175.5 -114t-113.5 -285q-23 -108 -23 -190zM1028 254q21 -63 71 -102t113 -39q61 0 109 31.5t81.5 90t55.5 125t39 152.5q19 93 19 160q0 111 -39 175t-111 64q-60 0 -130.5 -42t-109.5 -109l-63 -250z" />
<glyph unicode="&#x445;" horiz-adv-x="1081" d="M-39 -4l80 84l262 282l96 111l-41 105l-75 178l-80 180l-41 92l192 -6l172 6l25 -84l53 -147l37 -103l96 105q55 59 123 147l64 82l86 -6l104 6l-74 -80l-260 -266l-88 -94l39 -101l86 -213l84 -204l35 -74l-170 4l-193 -4l-26 78l-64 190l-34 96l-89 -98 q-107 -134 -145 -180l-65 -86l-82 4z" />
<glyph unicode="&#x446;" horiz-adv-x="1325" d="M43 -20l33 112l39 174l51 256l39 207l35 197l8 104l164 -4l149 4l-29 -94q-20 -75 -45 -201l-36 -178l-25 -176l-39 -270h340l68 266l41 184l32 178l27 189l14 102l154 -4l160 4l-29 -90q-16 -56 -41 -182l-96 -492l-15 -90q-2 -11 -2 -20.5t1 -15.5t5.5 -11t6 -7t9.5 -5 t9 -3.5t10 -2.5l70 4l82 16l-125 -481h-111q52 154 52 231q0 115 -97 115h-600l-147 -4z" />
<glyph unicode="&#x447;" d="M182 659q0 54 13 127l30 240l160 -8l162 10l-47 -184q-13 -85 -13 -111q0 -172 146 -172q136 0 186 60l41 206l10 45l17 156l147 -6l160 6l-43 -160l-39 -196l-76 -383q-13 -69 -16 -106.5t-6 -55.5l-17 -133l-170 6l-147 -6l37 133q8 43 35 160l36 172 q-137 -78 -309 -78q-144 0 -220.5 70t-76.5 208z" />
<glyph unicode="&#x448;" horiz-adv-x="1828" d="M12 -4l37 119l41 174l47 229l37 209l35 197l8 102l164 -4l149 4l-28 -92q-22 -88 -45 -201l-35 -180l-23 -150l-37 -270l-6 -4h338l37 156l47 235l35 209l35 197l10 102l164 -4l149 4l-28 -92q-29 -110 -45 -201l-35 -180l-23 -156l-36 -270l319 -2l63 248l39 184l33 180 l27 189l14 100l154 -4l159 4l-28 -88q-25 -105 -41 -184l-92 -473l-27 -183l-10 -104l-131 4h-1311z" />
<glyph unicode="&#x449;" horiz-adv-x="1955" d="M47 -4l39 119l39 176l47 229l39 207l33 197l10 104l162 -4l151 4l-30 -94q-29 -110 -45 -201l-35 -180l-21 -147l-39 -271l-8 -4h340l37 156l45 235l39 207l33 197l10 104l164 -4l151 4l-30 -94q-20 -75 -45 -201l-41 -211l-48 -241l-18 -160l332 4l63 250l41 184l33 178 l27 189l14 102l152 -4l161 4l-28 -90q-12 -42 -43 -182l-90 -475l-17 -93l45 -75l66 4l82 16l-125 -481h-111q51 145 51 231q0 102 -73 113l-90 2h-1309z" />
<glyph unicode="&#x44a;" horiz-adv-x="1247" d="M121 891l18 76l8 71l121 -12l86 -6h162q83 0 168 10l-33 -117q-1 -5 -57 -266q57 6 160 6q214 -3 308.5 -73t94.5 -187q0 -31 -6 -69q-15 -81 -58.5 -144.5t-102 -102.5t-133.5 -64t-147.5 -34.5t-150.5 -9.5l-248 31q-47 0 -141 -4q61 244 117 516q41 210 67 389h-114z M494 104q48 -22 79 -22q93 0 171.5 73t97.5 173q6 30 6 59q0 81 -48.5 126.5t-135.5 45.5l-91 -6q-6 -37 -25 -130.5t-22 -121.5z" />
<glyph unicode="&#x44b;" horiz-adv-x="1560" d="M8 -4q66 265 115 516q62 315 84 518q69 -10 147 -10q81 0 166 10l-33 -117q-9 -36 -25 -119.5t-32 -146.5q61 6 162 6q213 -3 308 -73t95 -187q0 -19 -8 -69q-15 -81 -58.5 -144.5t-102 -102.5t-133.5 -64t-147.5 -34.5t-150.5 -9.5l-248 31q-49 0 -139 -4zM330 104 q48 -22 80 -22q93 0 172 73.5t96 174.5q8 36 8 57q0 81 -49.5 127.5t-136.5 46.5l-86 -8q-47 -217 -52 -252zM1040 2l27 96l41 187l49 225l39 219l33 199l12 108l154 -6l159 6l-28 -104q-5 -23 -20.5 -92t-24.5 -107l-45 -223l-39 -225l-33 -187l-10 -96l-158 4z" />
<glyph unicode="&#x44c;" horiz-adv-x="1021" d="M-53 -4q62 248 114 516q61 309 86 518q66 -10 146 -10q33 0 170 10l-35 -117q-12 -42 -28.5 -126.5t-30.5 -139.5q61 6 161 6q213 -3 308.5 -73t95.5 -187q0 -31 -6 -69q-16 -81 -59.5 -144.5t-102 -102.5t-133.5 -64t-147.5 -34.5t-151.5 -9.5l-248 31q-49 0 -139 -4z M270 104q45 -22 95 -22q90 0 162.5 73t93.5 175q4 18 4 53q0 83 -49.5 130.5t-137.5 47.5l-86 -8q-19 -87 -51 -252z" />
<glyph unicode="&#x44d;" horiz-adv-x="1081" d="M-8 74l51 84l59 108h50q-4 -87 48 -139.5t140 -52.5q70 0 132 35t106.5 93.5t76 131t47.5 153.5h-245l-80 -4l-125 -10l18 76l11 72l118 -11l86 -8h240q6 41 6 76q0 110 -62 181t-169 71q-187 0 -275 -123h-41l13 78l8 69q197 99 356 99q201 0 331 -120.5t130 -307.5 q0 -45 -10 -103q-21 -115 -78.5 -215.5t-143 -176.5t-203.5 -119.5t-253 -43.5q-178 0 -297 72z" />
<glyph unicode="&#x44e;" horiz-adv-x="1660" d="M-55 -4l24 94l41 189l47 225l43 217l31 201l14 106l154 -6l160 6l-31 -102q-36 -153 -45 -199l-27 -133h195q2 7 29 74q80 182 243 284q154 101 353 101q238 0 356 -142q80 -92 80 -249q0 -56 -13 -132q-82 -423 -464 -534q-89 -27 -189 -27q-237 0 -354 135 q-82 91 -82 248q0 59 8 111h-188l-31 -184l-33 -189l-8 -94l-158 4zM813 291q0 -223 158 -223q226 0 317 469q25 122 25 202q0 212 -150 215q-240 -3 -329 -458q-21 -117 -21 -205z" />
<glyph unicode="&#x44f;" horiz-adv-x="1163" d="M-39 -6l451 463q-97 18 -155 75.5t-58 151.5q0 30 6 68q28 149 142 225t284 76q94 0 197 -11t173 -14l158 6l-29 -108l-45 -199l-61 -313l-31 -172l-22 -158l-13 -90l-172 6l-137 -6l21 88l30 121l35 166l10 71h-22l-61 -67l-254 -279l-93 -100l-168 6zM512 743 q-17 -83 22 -142t101 -62q19 -1 34 -0.5t29.5 3t21.5 4t23.5 6t22.5 5.5l43 203l25 143l4 15q-5 3 -15.5 8.5t-13.5 6.5t-10.5 4.5t-11.5 4t-11 2t-15 1.5t-18.5 0.5t-25.5 0.5q-76 0 -133 -57t-72 -146z" />
<glyph unicode="&#x451;" horiz-adv-x="1081" d="M18 375q0 49 15 141q23 131 90 250q50 86 139 160q160 127 373 127q214 0 311 -127q68 -92 68 -224q0 -46 -10 -114l-25 -103l-59 7l-115 4l-113 6h-354l-6 -70q-2 -16 -2 -49q0 -108 47 -172q67 -94 201 -94q99 0 217 47l67 31l23 -17l-41 -65l-43 -66l-68 -27 q-34 -15 -102 -30q-96 -21 -168 -21q-379 0 -434 297q-11 64 -11 109zM299 1343q12 60 61 103q58 46 123 49q56 0 97 -47q36 -33 26 -105q-9 -58 -69 -106q-52 -43 -113 -43q-62 0 -105 43q-31 45 -20 106zM365 616h333l11 60q12 64 12 117q0 160 -115 163q-112 0 -184 -151 q-34 -73 -43 -121zM748 1343q16 67 63 103q58 46 121 49q57 0 98 -47q37 -40 25 -105q-9 -56 -68 -106q-52 -43 -113 -43t-104 43q-34 40 -22 106z" />
<glyph unicode="&#x452;" horiz-adv-x="1241" d="M49 -4l33 139l59 275l82 407l66 344l-74 -2q-58 -7 -80 -12l23 80l16 67q55 -16 76 -18h67l17 137l4 70l162 59l153 66l21 -19l-25 -90q-41 -150 -51 -215l-2 -8l209 2l110 14l-18 -71l-10 -76q-24 3 -61.5 6.5t-51.5 5.5l-201 4l-51 -272l64 61q123 105 284 105 q279 0 279 -273q0 -50 -14 -139l-31 -154l-51 -249l-49 -240q-45 -210 -173 -326q-117 -100 -346 -145l-24 82q77 22 123 51q45 36 73 105q30 74 68 243l45 234l53 241l29 162q4 25 4 66q0 156 -143 159q-126 0 -189 -106q-35 -62 -51 -131l-33 -143l-37 -187l-28 -180 l-13 -129l-149 4z" />
<glyph unicode="&#x453;" horiz-adv-x="780" d="M-111 -4l29 94l41 189l47 225l39 219l33 192l4 125l164 -12h229q111 0 322 19l-21 -70l-10 -78l-262 12l-129 4q-24 -88 -43 -188l-47 -223l-39 -225l-31 -189l-12 -94l-156 4zM393 1176q37 41 85.5 97.5t64.5 74.5q34 50 100 135l123 -4l119 4l-2 -35 q-194 -115 -416 -272h-74z" />
<glyph unicode="&#x454;" horiz-adv-x="1081" d="M57 379q0 52 13 119q48 248 229 399q84 72 203 113q119 43 248 43q175 0 294 -72l46 -35l-52 -84l-59 -108h-49q-4 59 -8 71q-15 58 -63.5 89.5t-117.5 31.5q-122 0 -221.5 -102t-126.5 -242h240l90 8l123 11l-19 -72l-10 -76l-119 10l-80 4h-245q-8 -41 -8 -92 q0 -128 68.5 -212t193.5 -85q96 0 190 54l60 38l32 -16l-37 -57l-30 -58l-60 -30q-117 -60 -256 -60q-213 0 -341 110t-128 300z" />
<glyph unicode="&#x455;" horiz-adv-x="841" d="M-4 55l35 90l30 91h43l29 -58q61 -110 203 -110q63 0 119 32q59 44 71 107q12 79 -100 125l-90 41l-94 45q-51 21 -90 63q-43 49 -43 133q0 41 8 80q26 158 153 264q125 95 291 95q128 0 227 -54l52 -32l-47 -86l-41 -97h-45q-23 170 -185 170q-67 0 -116 -32 q-56 -40 -68 -101q-12 -68 55 -108q73 -35 123 -51q151 -58 191 -113q49 -55 49 -139q0 -32 -6 -66q-17 -75 -50 -131q-43 -82 -112 -139q-73 -60 -144 -80q-71 -25 -165 -25q-141 0 -222 47z" />
<glyph unicode="&#x456;" horiz-adv-x="600" d="M-16 -4l28 94l41 189l47 225l41 217l33 199l10 108l156 -6l158 6l-27 -104q-18 -66 -45 -199l-47 -221l-39 -225l-31 -189l-12 -94l-156 4zM258 1421q12 65 68 115q57 46 129 49q66 0 104 -47q39 -41 29 -117q-12 -63 -74 -116q-57 -48 -123 -48q-68 0 -110 48 q-38 47 -23 116z" />
<glyph unicode="&#x457;" horiz-adv-x="792" d="M84 -4l29 94l41 189l47 225l41 217l32 199l11 108l155 -6l158 6l-27 -104q-14 -49 -47 -199l-45 -221l-39 -225l-32 -189l-11 -94l-155 4zM199 1448q9 56 59 94q45 40 109 43q55 0 90 -41q31 -31 22 -96q-9 -55 -61 -98q-51 -39 -105 -39q-55 0 -94 39q-29 39 -20 98z M569 1448q9 57 58 94q48 40 110 43q55 0 88 -41q34 -32 25 -96q-9 -52 -64 -98q-51 -39 -102 -39q-54 0 -96 39q-30 45 -19 98z" />
<glyph unicode="&#x458;" horiz-adv-x="600" d="M-211 -360q65 16 121 49q49 39 74 106q21 45 69 242l45 233l43 226l41 225q23 124 33 199l12 110l156 -6l160 6l-27 -104l-49 -207l-47 -223l-39 -230l-49 -237q-48 -214 -172 -326q-117 -100 -346 -145zM301 1423q12 65 68 115q57 46 127 49q68 0 106 -49 q38 -47 29 -115q-12 -66 -74 -116q-56 -47 -123 -47q-69 0 -110 47q-38 47 -23 116z" />
<glyph unicode="&#x459;" horiz-adv-x="1560" d="M-82 -4l102 166l134 221l178 305l121 225l61 117l121 -6l115 6l18 -123l37 -260v-6q154 16 239 16q227 0 328 -70.5t101 -189.5q0 -27 -7 -67q-16 -82 -56.5 -145.5t-94.5 -102.5t-125 -64.5t-141 -35t-148 -9.5l-203 25l-116 -2l-13 129l-28 272l-31 221l-14 109 l-60 -100l-123 -217l-153 -295l-54 -119l-98 4zM819 551l66 -365l20 -110q12 -2 35 -2q80 0 138 73t77 168q6 35 6 66q0 83 -46 133.5t-128 50.5q-110 0 -168 -14z" />
<glyph unicode="&#x45a;" horiz-adv-x="1763" d="M16 -4l25 94l41 189l49 225l41 219l33 199l12 108l154 -8l159 8l-30 -104q-36 -153 -45 -199l-25 -113l105 -10h282l27 119l33 199l12 108l153 -8l160 8l-31 -104q-5 -23 -20.5 -91.5t-24.5 -107.5l-18 -113l160 2q216 -1 309.5 -63t93.5 -176q0 -20 -8 -74 q-18 -93 -76.5 -161t-143.5 -104t-175 -52.5t-189 -16.5q-47 0 -136 14.5t-112 16.5l-124 -4h-5h-14q6 22 20 76.5t21 81.5l27 125l45 196l-121 10h-170l-104 -10l-35 -196l-33 -189l-8 -94l-158 4zM1016 111q58 -23 96 -23q95 0 161.5 56t84.5 159q6 27 6 55 q0 150 -186 150q-15 0 -30.5 -2t-34.5 -5.5t-28 -4.5q-6 -30 -14.5 -71.5t-13.5 -68t-8 -49.5z" />
<glyph unicode="&#x45b;" horiz-adv-x="1241" d="M4 -4l33 139l59 275l82 407l66 344l-74 -2q-58 -7 -80 -12l23 80l16 67q55 -16 76 -18h67l17 137l4 70l162 59l157 66l17 -19l-25 -90q-41 -150 -51 -215l-2 -8l209 2l110 14l-18 -71l-10 -76q-24 3 -61.5 6.5t-51.5 5.5l-201 4l-51 -272l64 61q123 105 284 105 q279 0 279 -275q0 -48 -14 -137l-31 -154l-41 -196q-29 -176 -31 -195l-8 -102l-150 4l-163 -4l30 117q38 171 43 190l39 182l29 162q4 25 4 66q0 156 -143 159q-126 0 -189 -106q-35 -62 -51 -131l-33 -143l-37 -187l-28 -180l-13 -129l-149 4z" />
<glyph unicode="&#x45c;" horiz-adv-x="1081" d="M-43 -4l25 88l36 158l37 174l60 313l32 199l13 108l153 -8l160 8l-29 -104q-31 -111 -49 -199l-28 -155l18 -3q22 4 115 82l145 131q65 57 158 166l65 74l119 -6l131 6l-108 -84l-207 -176l-158 -133l45 -107l109 -243l92 -209l41 -80l-170 4l-189 -4l-24 82l-84 207 q-53 138 -86 176l-31 18l-14 -76l-31 -165l-24 -156l-13 -86l-133 4zM608 1176q37 41 85.5 97.5t64.5 74.5q8 14 98 135l123 -4l119 4l-2 -35q-182 -107 -414 -272h-74z" />
<glyph unicode="&#x45e;" horiz-adv-x="1079" d="M55 -446l95 120q12 17 137 199l82 127l-45 197l-76 350l-78 350l-29 131l172 -6l166 6l13 -127l34 -215l43 -229l21 -97l55 95l133 225q100 184 121 223l59 125l80 -6l103 6l-78 -127l-217 -348l-215 -356l-189 -316l-125 -211l-63 -116l-94 4zM406 1274q13 31 28 70.5 t19 50.5l28 88h33q6 -45 16.5 -68t32.5 -47q45 -51 182 -51q61 0 123 13.5t95 39.5q3 3 16.5 14t18 15t16 14.5t18.5 19t16.5 22t18.5 28.5h29l-11 -86q0 -6 -2 -23t-2 -28q0 -8 2 -31.5t2 -36.5l-65 -25q-160 -39 -293 -39q-165 0 -266 37z" />
<glyph unicode="&#x45f;" horiz-adv-x="1218" d="M43 -20l33 112l39 174l51 256l39 207l35 197l8 104l164 -4l149 4l-29 -94q-20 -75 -45 -201l-36 -178l-25 -176l-39 -270l84 -7h150l106 7l68 266l41 184l32 178l27 189l14 102l154 -4l160 4l-29 -90q-16 -56 -41 -182l-96 -492l-13 -98l-10 -188l-284 14 q-110 1 -154 -67t-80 -277h-110q45 158 45 237q0 58 -25 83.5t-76 25.5l-145 -4z" />
<glyph unicode="&#x490;" horiz-adv-x="1087" d="M16 -10q63 228 168 745q93 495 123 750q166 -10 420 -10h139q86 1 125.5 76t48.5 231h117q-34 -366 -41 -484q-247 25 -397 25q-42 0 -92 -4q-106 -519 -119 -588q-97 -509 -121 -741q-110 10 -188 10q-73 0 -183 -10z" />
<glyph unicode="&#x491;" horiz-adv-x="780" d="M-96 -4l26 94l41 189l47 225l41 217l31 192l6 127l164 -12h229q47 0 80 6.5t56.5 22.5t38 38t23 59t11.5 78t4 103h111l-25 -291l-8 -145l-47 2l-217 10l-129 2q-10 -36 -43 -186l-47 -223l-39 -225l-31 -189l-10 -94l-158 4z" />
<glyph unicode="&#x2000;" horiz-adv-x="982" />
<glyph unicode="&#x2001;" horiz-adv-x="1964" />
<glyph unicode="&#x2002;" horiz-adv-x="982" />
<glyph unicode="&#x2003;" horiz-adv-x="1964" />
<glyph unicode="&#x2004;" horiz-adv-x="654" />
<glyph unicode="&#x2005;" horiz-adv-x="491" />
<glyph unicode="&#x2006;" horiz-adv-x="327" />
<glyph unicode="&#x2007;" horiz-adv-x="327" />
<glyph unicode="&#x2008;" horiz-adv-x="245" />
<glyph unicode="&#x2009;" horiz-adv-x="392" />
<glyph unicode="&#x200a;" horiz-adv-x="109" />
<glyph unicode="&#x2010;" horiz-adv-x="602" d="M8 438l49 242h541l-49 -242h-541z" />
<glyph unicode="&#x2011;" horiz-adv-x="602" d="M8 438l49 242h541l-49 -242h-541z" />
<glyph unicode="&#x2012;" horiz-adv-x="602" d="M8 438l49 242h541l-49 -242h-541z" />
<glyph unicode="&#x2013;" d="M41 467l39 199h1106l-39 -199h-1106z" />
<glyph unicode="&#x2014;" horiz-adv-x="1923" d="M70 467l39 199h1744l-38 -199h-1745z" />
<glyph unicode="&#x2018;" horiz-adv-x="602" d="M74 942q8 47 55 111l64 71l360 383l53 -26l-209 -467q-92 -201 -211 -201q-57 0 -90 39q-31 42 -22 90z" />
<glyph unicode="&#x2019;" horiz-adv-x="602" d="M74 840l211 467l41 88q60 112 168 112q59 0 88 -39q33 -39 24 -90q-11 -54 -55 -110l-66 -72l-356 -383z" />
<glyph unicode="&#x201a;" horiz-adv-x="600" d="M20 -344l207 469q88 199 215 199q59 0 86 -39q34 -46 23 -90q-9 -55 -53 -109l-66 -74l-356 -383z" />
<glyph unicode="&#x201c;" horiz-adv-x="1001" d="M82 940q9 55 55 109l64 73l356 383l55 -26l-209 -467q-91 -201 -210 -201q-59 0 -91 37q-31 42 -20 92zM477 940q9 57 55 109l64 73l360 383l54 -26l-209 -467q-49 -98 -78 -135q-57 -66 -133 -66q-58 0 -90 37q-34 40 -23 92z" />
<glyph unicode="&#x201d;" horiz-adv-x="1001" d="M25 840l208 467q22 45 46 88q60 112 167 112q53 0 86 -39q34 -40 25 -90q-11 -54 -55 -110l-66 -72l-358 -383zM420 840l211 467l43 88q60 112 168 112q55 0 88 -39t24 -90q-11 -54 -55 -110l-65 -72l-359 -383z" />
<glyph unicode="&#x201e;" horiz-adv-x="1001" d="M80 -344l211 467q91 201 211 201q57 0 88 -39q34 -40 22 -92q-9 -56 -53 -109l-65 -72l-359 -383zM477 -344l211 467q48 108 76 133q62 68 135 68q57 0 88 -39q34 -46 23 -90q-7 -47 -54 -111l-65 -72l-359 -383z" />
<glyph unicode="&#x2026;" horiz-adv-x="1923" d="M170 152q12 65 63 108q47 44 117 47q59 0 101 -45q36 -48 22 -108q-12 -62 -65 -109q-48 -45 -115 -45q-65 0 -100 43q-37 47 -23 109zM809 152q12 63 65 108q47 44 117 47q60 0 99 -45q36 -44 24 -108q-12 -60 -67 -109q-51 -45 -115 -45q-66 0 -98 43q-37 43 -25 109z M1448 152q12 62 63 108q49 44 119 47q59 0 101 -45q36 -48 22 -108q-12 -62 -65 -109q-51 -45 -115 -45q-66 0 -103 43q-33 48 -22 109z" />
<glyph unicode="&#x202f;" horiz-adv-x="392" />
<glyph unicode="&#x2039;" horiz-adv-x="602" d="M92 516l105 107q55 58 135 151l108 131q54 -69 138 -92l-78 -72q-54 -54 -117 -131l-78 -94l39 -88q46 -100 78 -149l41 -64q-89 -16 -174 -86l-49 113q-44 93 -90 172z" />
<glyph unicode="&#x203a;" horiz-adv-x="602" d="M16 215l66 64q53 51 137 149l72 88l-41 94q-46 97 -70 131l-45 72q95 22 170 92l60 -131q27 -69 77 -151l60 -107l-94 -102q-39 -39 -158 -172l-96 -113q-57 69 -138 86z" />
<glyph unicode="&#x205f;" horiz-adv-x="491" />
<glyph unicode="&#x20ac;" d="M6 541l57 96h95q0 9 1.5 22t3.5 27.5t3 20.5q2 8 6 31t6 30h-131l57 96h101q41 142 97.5 247.5t135.5 183.5t186 117.5t242 39.5q254 0 334 -109l-20 -200h-50q1 105 -56.5 156t-162.5 51q-153 0 -250 -124t-159 -362h514l-55 -96h-480q-2 -10 -6 -33t-6 -33 q-5 -25 -10 -65h422l-58 -96h-379q-25 -227 37.5 -348t206.5 -121q98 0 176 50t113 154h51l-49 -192q-126 -113 -375 -113q-252 0 -361.5 144t-88.5 426h-148z" />
<glyph unicode="&#x2122;" horiz-adv-x="1376" d="M129 1427l6 41l10 37l234 -10l162 6l75 4l-12 -37l-4 -41l-57 5l-113 2l-6 -39l-66 -363l-20 -125l-14 -61h-150l19 61l28 125l70 363l8 39l-111 -2zM473 842l23 61q18 48 100 291l70 217l28 86l39 -4l37 4l21 -96l108 -354l268 383l39 67l39 -4l37 4l-4 -65l-33 -504 l-2 -86l-74 4l-84 -4l9 59l28 297l8 78l-53 -82l-192 -281l-43 -71l-23 4l-20 -4l-29 131l-90 299q-89 -273 -107 -371l-16 -59l-45 4z" />
<glyph unicode="&#x25fc;" horiz-adv-x="1024" d="M0 0v1024h1024v-1024h-1024z" />
</font>
</defs>
</svg>
